/* XPM */
static char *back_baby[] = {
/* columns rows colors chars-per-pixel */
"42 42 253 2 ",
"   c #29160E",
".  c #2B1612",
"X  c #2D1A11",
"o  c #331D17",
"O  c #250F0D",
"+  c #382519",
"@  c #2B1E27",
"#  c #2C242E",
"$  c #3A2925",
"%  c #392835",
"&  c #2D2A31",
"*  c #1F070A",
"=  c #461816",
"-  c #4F0C1D",
";  c #412E1E",
":  c #45331E",
">  c #54201D",
",  c #570628",
"<  c #451C22",
"1  c #5B0932",
"2  c #52102D",
"3  c #660429",
"4  c #6A0A34",
"5  c #780B37",
"6  c #6A1D35",
"7  c #6B1B3C",
"8  c #661437",
"9  c #73143C",
"0  c #7C143B",
"q  c #741B3C",
"w  c #791A3B",
"e  c #6E102B",
"r  c #462B27",
"t  c #56272B",
"y  c #453322",
"u  c #493623",
"i  c #4B3A25",
"p  c #4D3C2A",
"a  c #48352A",
"s  c #55382E",
"d  c #572939",
"f  c #4B3939",
"g  c #573838",
"h  c #4A2E35",
"j  c #6C2439",
"k  c #72243B",
"l  c #76273E",
"z  c #663B39",
"x  c #612129",
"c  c #54422D",
"v  c #59473A",
"b  c #65493B",
"n  c #7B1B42",
"m  c #791844",
"M  c #781854",
"N  c #6C124C",
"B  c #593A43",
"V  c #4A3642",
"C  c #662643",
"Z  c #742343",
"A  c #7C2345",
"S  c #7C2D44",
"D  c #7D234B",
"F  c #792C49",
"G  c #653947",
"H  c #783547",
"J  c #752B59",
"K  c #594746",
"L  c #5B5247",
"P  c #4F464A",
"I  c #65434B",
"U  c #634C49",
"Y  c #684946",
"T  c #79474B",
"R  c #645345",
"E  c #6C5443",
"W  c #63544B",
"Q  c #69554B",
"!  c #685A4B",
"~  c #725D4D",
"^  c #755548",
"/  c #784854",
"(  c #6D5B52",
")  c #655654",
"_  c #755A57",
"`  c #6D4D54",
"'  c #6E614A",
"]  c #746453",
"[  c #7A6454",
"{  c #7D6C5B",
"}  c #786857",
"|  c #7F715B",
" . c #736554",
".. c #7E5466",
"X. c #6F6461",
"o. c #776A64",
"O. c #7B726D",
"+. c #7C7365",
"@. c #7F7671",
"#. c #830D32",
"$. c #89193D",
"%. c #94213D",
"&. c #880B45",
"*. c #821C43",
"=. c #891849",
"-. c #96174A",
";. c #941953",
":. c #891954",
">. c #A51D53",
",. c #832244",
"<. c #83234B",
"1. c #89244C",
"2. c #872949",
"3. c #992948",
"4. c #84344B",
"5. c #8B2852",
"6. c #942757",
"7. c #863855",
"8. c #95365A",
"9. c #9D3146",
"0. c #A5265C",
"q. c #A33655",
"w. c #8F1E66",
"e. c #9B2762",
"r. c #963764",
"t. c #892A6D",
"y. c #A82968",
"u. c #A43668",
"i. c #B4356A",
"p. c #A92A77",
"a. c #B83677",
"s. c #B0316E",
"d. c #BA1F62",
"f. c #C63B7C",
"g. c #85474D",
"h. c #884757",
"j. c #875657",
"k. c #925659",
"l. c #97574D",
"z. c #A94659",
"x. c #84685C",
"c. c #82745E",
"v. c #936A51",
"b. c #984766",
"n. c #985869",
"m. c #8F5469",
"M. c #AB4879",
"N. c #B5467C",
"B. c #A35975",
"V. c #AF4E6D",
"C. c #856C64",
"Z. c #847365",
"A. c #84746C",
"S. c #8B796E",
"D. c #887869",
"F. c #827973",
"G. c #897B72",
"H. c #966D70",
"J. c #A66678",
"K. c #AB747C",
"L. c #C3467E",
"P. c #96887B",
"I. c #8C847A",
"U. c #D1945C",
"Y. c #D18444",
"T. c #D29963",
"R. c #CAA570",
"E. c #B73383",
"W. c #C93988",
"Q. c #D3378C",
"!. c #B64A85",
"~. c #B95786",
"^. c #A54687",
"/. c #9B7383",
"(. c #A87B83",
"). c #B8738C",
"_. c #A45C93",
"`. c #C64787",
"'. c #C94A95",
"]. c #D74B97",
"[. c #D45399",
"{. c #CA5595",
"}. c #C77196",
"|. c #D84CA2",
" X c #D354A9",
".X c #EA48A9",
"XX c #E255A6",
"oX c #F75ABC",
"OX c #F14FB5",
"+X c #D766A9",
"@X c #D46EAE",
"#X c #E866BB",
"$X c #E273BA",
"%X c #F16DB7",
"&X c #F65AC5",
"*X c #EB6CC2",
"=X c #F667C5",
"-X c #F675C8",
";X c #FA78D5",
":X c #F472CD",
">X c #DF78C2",
",X c #988B85",
"<X c #9B9288",
"1X c #B8979B",
"2X c #AD9090",
"3X c #B0A39D",
"4X c #BB9BA6",
"5X c #ADA8A1",
"6X c #B7ABA7",
"7X c #BBB4AC",
"8X c #BDB9AE",
"9X c #B7B2A9",
"0X c #BCB7B5",
"qX c #B9AAB1",
"wX c #C38E9A",
"eX c #C496A9",
"rX c #CF86AC",
"tX c #E688BB",
"yX c #C8A1AE",
"uX c #C5B3A9",
"iX c #C1BCB3",
"pX c #C3BEB9",
"aX c #D2ADB7",
"sX c #D5AD92",
"dX c #BFC5BB",
"fX c #CCC4B4",
"gX c #C7C6BB",
"hX c #D4CAB9",
"jX c #CCC0AD",
"kX c #BFBCC2",
"lX c #DA99C4",
"zX c #E985C5",
"xX c #F18ACB",
"cX c #FA87D7",
"vX c #F797D8",
"bX c #EC98CE",
"nX c #D4A6C3",
"mX c #FF88E2",
"MX c #FE9CE3",
"NX c #F5B2E4",
"BX c #ECAEDF",
"VX c #CBCDC2",
"CX c #C7C8C7",
"ZX c #D5CAC3",
"AX c #CED1C5",
"SX c #D3D4CC",
"DX c #D5D4C8",
"FX c #D7DAD5",
"GX c #CFD6D2",
"HX c #E6C7D0",
"JX c #DCE2DD",
"KX c #EFD0E7",
"LX c #E5E2E6",
/* pixels */
"U Y Y H x g.S.S.G.S.D.D.C.Z.+.+.k.8.L.).~.~.KXbX%X$X@X` v K B g K W ) X.o.O.@.@.@.F.",
"_ E Y z e j.v.C.D.S.D.C.Z.C.C.j.8.8.q.8.m 7.LXbX=XvX;X[./ @ t t h B U ` o.O.@.@.@./.",
"~ b ' c.j.j.C.x.x.} { Z.[ D.h.n 2.8.7.$.8 2 yXrX*X%X#X%XvXC - t t s g B X.O.O.@.F.F.",
"D.S.S.S.D.C.C.{ ! v R E T m.Z 1.i.u.n 9 1 H yXN.|.=XKX;XmX}.o t r h f W X.o.O.O.@.@.",
"I.X.Z.S.O.+.Z.c./ ^ g b h.<.*.u.{.L.=.l 0 HXaX6.{.:XMXNX&X&Xm.f K g K R ) X.o.O.@.@.",
"<X+.G.P.P.}.aX}.z.q.,.S 8.8.#.m y.q.$.w 5 eXaX6.5.!.OX&X&X=X X` U U Q G v K ) ) X.O.",
"} X.v.K.XX].f.>.$.#.3 n 5.5.8.$.0.[.w 5 9 D eX~.t.4 M  X;X-X.X^.v U U Y ~ U W ( L ) ",
"+ h i.Q.XXf.-.%.#.e , A 0 6.6.0 y..X1.3 <.1X1XM.W.:.2 t.&XoX.X*X_ I ` ~ ~ Y b ( ) ! ",
"K u.].`.f.d.-.%.5 3 - #.,.6.5 N t.p.*.F J.KX(.;.M w.w., W.&X=X=X/.W W ) Y z / [ ~ ` ",
"D s.[.].i.>.%.#.e 3 , 4 n.5.0.m M p.3.g.h.wXJ.:.J N E.N.B.BX&XOXE.5.b.B.A. . .x.C.L ",
"i.d.f.f.>.3.9.5 , - , F J.*.i.5 ;.oXa.q 4 9 m.m w.t.Q.:X(.rXvXcXE.N &.0.!.~.H.~ Q K ",
"~.L.d.-.#.#.#.3 - - 8 =.A A 5.9 =.*X[.4 4 h.b.r.w.W.W. X$Xs.XX;X#X&.&.:.:.0.+XH.W o.",
"m.k._ s T T x z o - 4.1.3 m =.5 #.].a.5 B.wXg.M.W.[.{.'.Q. X|.:X#X&.;.&.8.}.M.+X/.) ",
"@. .! v ^ } v E r o ,.=.m =.5 ,.m W.y.e.<.1Xn.6.].OX Xp.;.+XoX=X*X#.;.;.b.).~.i.@X_ ",
"+.! ( R c ' b v h r 5.n *.,.5 ,.9 -.y.!.e.D b.r.{.:XOX{.w.w.W..X@X4 ;.-.;.r.r.0. XrX",
"+.(  .! c b b R a t 1.*.m *.*.5 5 5 6.y.m J.n.u.!.'.OX:Xa.N N  XlX5 &.;.-.8.).B.r.zX",
"v f a $ r $ $ s a $ <.,.*.$.<.0 4 D 5.0 b.HXn.t.d.=.XX&XQ.N J *XzXF M :.=.1.B.M.6.{.",
"o X   + o o . $ a y 4.5.2.5 w 5 4 $.w 3 n.HX_ t.W.D r.&X#X<.|.'.+X..I / n.m.C.B.~.rX",
"X + X X . . O X r h T 5.*.0 5 0 n =.0 n m m.h.u.XX5.4 `.:XE.|.p.n.` ` K } ,X2X2XqXFX",
"X X   . X O * O r p ] b.1.A 4 m 5.6.0 <.m h.h.N.-X:.8 u.&X'.@XJ.I G ` K B A.1X6XqXCX",
"+ + X + o X . . y b ' T m *., 1 *.8.w e 7 1XS M.-Xb.4 A !. X_.` G B d B V I ,XCXkXqX",
"+ + + + + o X . a E ~ x.8 7 Z , #.,.w 3 7.K.k ;.BXnX4 N  X+X/ G B d G G V V ) <XkXkX",
": + + $ + + + + p ^ x.D.m.4 Z m =.s.=.3 8 g.l <.KXBXe.8 {.@XT H d d I U V V o...F.2X",
": : i + y y + + c ' c.v.n.u.8 m 2.!.0 3 n.k.S D r.;X:X6.+X&X/ G G I G B & % o.A.,Xo.",
": : $ i i : : : b I.' S f.Q.m m n 5.r.m h.j.A N 8 M.;X#X*XvXm.B I B V % # # o.G.P.S.",
"i : : : i i + c ' } T 8.'.M 2 Z , m !.~.n.h.m e.[.;.'.;X*XBX..B % % # & & @ K A.Z.D.",
"i i i i i i : v v v T 7 M 8 8 8 , 1 8 r.N.p.~.+X'.E.W.>XlX*X..# % % V V P P X.,X5X7X",
"i c c i i i : v v b / 8 Z 6 7 8 1 8 8 , 8 8.#X!.e.e.F F b.@XyXH.9XdXCXGXGXGXJXJXFXGX",
"i c c c c a y L z b S.j.F m D 6.1 M Z 2 x D 5.w ,.$.2.$.Z Z B.iXAXSXFXFXCXCXZXpXFXJX",
"i c i i y i c v t ^ v.l C D r.^.D 4 b.b.j l 6 6 l ,.2.2.F F k 7.yXCXgXCXkX0XqXH.K.6X",
"c i c v R R  .| { C.^ 7 N A n :.w 2 $X+Xx l q 6 w $.2.2.2.S H k h.qXdX1X0XCXCXgX2Xk.",
"c ' ^ b z > > R } ~ ^ H Z 8 8 A , ^.vX].6 k k 6 k l ,.2.4.4.H H H B.4Xg.n.uXFXSXVXuX",
"| D.v.^ b b b E ] R Y S q 8 2 2 h.bXcX`.%.z j j j l 2.2.2.4.H H g.b.wX(.n.k.2XFXSXDX",
"v u ' | ' | c.[ ] R Y Z 6 6 2 2 @XMX-XL.g.4.j 8 6 j l $.4.g.l j.n.B.}.DXsXP.aXJXJXFX",
"= = b c.] [ [ ~ ] Q ^ g./ 7 - h.MXvX-XL.l S j j j j g.}.4.l z.sXpXsXHXFXDXSXJXJXSXFX",
"= = b c.[ ] ] Q E ~ v.l.T d d rXMXvX%X!.g.T j j S 6 B.@X1Xx.wXT.U.sXhXhX7X7XhXFXgXVX",
"b ' | | | } ' L E [ l.b Y s n.vXvXvX%XB./ K.r.7.H m.2X7XSXZXhXU.Y.T.fXjXfX7X8X<X9X8X",
"I.c.| | | L K W Y b ^ I Y T tXvXvXcX%X^.^.1X/.A.{ I.3X8XDXSXDXuXT.U.hXfXfXfXgX9X8XgX",
"v.| c.Z. .K L h < < B ) ) ).vXvXvXbX$X4XqXdX9X5X,XD.P.8XgXgXAXDXAXhXjXfXfXuXgXAXgXgX",
"' | | | ( P L h t g g S.P.tXxXeXzXnX2XqXdXdXdX8X9X3X6XjXAXgXVXFXFXuXhXfXhXgXhXgXiX9X",
"P +.+.+.} ) ) ~ g g t A.@XtXeX<XwXz.z.V.jXfXfXjX8X9X8XiXdXgXgXdXSXhXhXAXAXSXAXVX8X2X",
"L X.@.X.F.<X,X<Xz t A.1X@X6X6X3Xk.%.%.%.z.B.1X8X8X8XjXdXiX8XdX8XdXR.R.DXSXAXhXVXDX9X"
};
