/* XPM */
static char *front_baby[] = {
/* columns rows colors chars-per-pixel */
"42 42 247 2 ",
"   c #1C1119",
".  c #2C110A",
"X  c #26151B",
"o  c #341A14",
"O  c #300B0E",
"+  c #3B2418",
"@  c #351B26",
"#  c #2B1C27",
"$  c #352B33",
"%  c #352832",
"&  c #1F1E28",
"*  c #520E12",
"=  c #472D1C",
"-  c #4A301F",
";  c #682619",
":  c #580B29",
">  c #461926",
",  c #581929",
"<  c #5E1935",
"1  c #4E1234",
"2  c #660D2A",
"3  c #770C34",
"4  c #691737",
"5  c #78193B",
"6  c #6A132A",
"7  c #4B2528",
"8  c #4B3527",
"9  c #58392C",
"0  c #572735",
"q  c #4C3935",
"w  c #593738",
"e  c #4E2C32",
"r  c #7A3926",
"t  c #682738",
"y  c #762739",
"u  c #673B3A",
"i  c #763B39",
"p  c #6C2827",
"a  c #59453A",
"s  c #68473C",
"d  c #734735",
"f  c #1F3144",
"g  c #333C4B",
"h  c #531E47",
"j  c #4C1A42",
"k  c #791D42",
"l  c #681845",
"z  c #5B274B",
"x  c #5D3A40",
"c  c #51314D",
"v  c #692B46",
"b  c #782843",
"n  c #653A43",
"m  c #773845",
"M  c #713158",
"N  c #6C2D6D",
"B  c #3B4452",
"V  c #3E5065",
"C  c #49454A",
"Z  c #5B4844",
"A  c #575257",
"S  c #575052",
"D  c #6B4C44",
"F  c #674947",
"G  c #764746",
"H  c #6A5249",
"J  c #765849",
"K  c #6D5B56",
"L  c #6C5D5B",
"P  c #655655",
"I  c #745956",
"U  c #704A51",
"Y  c #6D625A",
"T  c #76635C",
"R  c #7B624B",
"E  c #555669",
"W  c #745566",
"Q  c #546572",
"!  c #776867",
"~  c #737270",
"^  c #84153D",
"/  c #83183D",
"(  c #810D34",
")  c #832B3A",
"_  c #85353B",
"`  c #87482C",
"'  c #934D2D",
"]  c #93512E",
"[  c #99532C",
"{  c #8A4B36",
"}  c #944A36",
"|  c #8C553A",
" . c #945332",
".. c #995634",
"X. c #9C5C3B",
"o. c #97573A",
"O. c #A35C3B",
"+. c #A4623E",
"@. c #9F603E",
"#. c #881C45",
"$. c #8F1F52",
"%. c #872848",
"&. c #873548",
"*. c #893857",
"=. c #973957",
"-. c #952A4F",
";. c #A52E5D",
":. c #8B3B69",
">. c #A73967",
",. c #AE2F6F",
"<. c #C93979",
"1. c #844A49",
"2. c #94494B",
"3. c #88574A",
"4. c #995A48",
"5. c #864A54",
"6. c #954A56",
"7. c #985658",
"8. c #875457",
"9. c #A15B4F",
"0. c #9E6244",
"q. c #99654A",
"w. c #866855",
"e. c #966655",
"r. c #8C6A54",
"t. c #A26444",
"y. c #A86A49",
"u. c #B46B45",
"i. c #B3734D",
"p. c #B67A56",
"a. c #A96E53",
"s. c #955767",
"d. c #93516D",
"f. c #AB4672",
"g. c #B64778",
"h. c #B6597A",
"j. c #AB506B",
"k. c #9A6A67",
"l. c #85756D",
"z. c #967466",
"x. c #906C70",
"c. c #A86D73",
"v. c #C37E55",
"b. c #C27E72",
"n. c #C74B72",
"m. c #7F817E",
"M. c #BC825D",
"N. c #9C877D",
"B. c #888379",
"V. c #B18971",
"C. c #C4835A",
"Z. c #D18E5F",
"A. c #C58965",
"S. c #CB936C",
"D. c #D5976C",
"F. c #D59D77",
"G. c #CA9979",
"H. c #D9A37C",
"J. c #E5AB7A",
"K. c #7A3A8F",
"L. c #777785",
"P. c #645981",
"I. c #C93D85",
"U. c #EB3BA4",
"Y. c #89428B",
"T. c #B94786",
"R. c #B2558D",
"E. c #B36E8C",
"W. c #914CAA",
"Q. c #886CB4",
"!. c #CB589A",
"~. c #D85897",
"^. c #CC4D8C",
"/. c #E64D9B",
"(. c #C66C88",
"). c #CA7194",
"_. c #D152A5",
"`. c #E75BA9",
"'. c #F454B1",
"]. c #D46CA7",
"[. c #E564AC",
"{. c #E77BAB",
"}. c #EC6BB6",
"|. c #F171B2",
" X c #EE7494",
".X c #9C57C7",
"XX c #A96BCE",
"oX c #FA6AC5",
"OX c #F779C9",
"+X c #F777D5",
"@X c #AC2E8C",
"#X c #77888B",
"$X c #799297",
"%X c #7CAEB9",
"&X c #6792A7",
"*X c #64B0CF",
"=X c #69C4E8",
"-X c #9D8B83",
";X c #9C888B",
":X c #8D9792",
">X c #A18C85",
",X c #A59788",
"<X c #B5918E",
"1X c #B4A693",
"2X c #B896A5",
"3X c #85A4A8",
"4X c #8DACB0",
"5X c #BDA7AC",
"6X c #A3BAB7",
"7X c #869FA1",
"8X c #C5978D",
"9X c #D9AA88",
"0X c #D7AF93",
"qX c #E2AD85",
"wX c #E5B48A",
"eX c #E7B996",
"rX c #F9B691",
"tX c #D392AA",
"yX c #E593B8",
"uX c #D9A5B6",
"iX c #C6B7B5",
"pX c #CDAEAA",
"aX c #E3A9BC",
"sX c #E89896",
"dX c #EFC199",
"fX c #D5C5BB",
"gX c #EDC8AC",
"hX c #86BAC5",
"jX c #F18BC9",
"kX c #DCADC1",
"lX c #DDB5C7",
"zX c #E5A9C4",
"xX c #E7B7C8",
"cX c #E7BBD3",
"vX c #F4B1D5",
"bX c #F8ADE3",
"nX c #87C7D5",
"mX c #95C8D3",
"MX c #8ED6E6",
"NX c #D7D0C7",
"BX c #E7D3C8",
"VX c #EAC2D7",
"CX c #F3C4DC",
"ZX c #E8D9D1",
"AX c #F9E6D8",
"SX c #FAF2EE",
"DX c #E9D6EA",
/* pixels */
"-X-X-X-X;XN.N.-X-X-XB.N.c.R.c.d.d.f.T.).pX5X<X;XT -.;.(.l.w.! T T T T T K Y K Y ! Y ",
",X-X>X-X-XN.N.-X-Xx.).h.*.t 1 # X @ @ 0 v I d.E.R.>.^./.).T T ! T Y L K K I L Y L Y ",
"-X>X>X>X-XN.-XN.k.yXR.e @ # % % g c E E Q A Q Q A A W E.{.2Xl.Y K K I K K K K L L Y ",
"-X;X-X-XN.N.x.t j.R.X % c H P ~ L.$X4X4X3XmXMXnX=XnXnX$X! j.).E.x.P P K K K P L L Y ",
">X>Xc.N.N.,XG b g.o 0 8.4.x.m.#X$X4X%X$XhXnX4X%XhXMXMXMXmXe.1.f.].R.K A F P A P P P ",
"c.z.c.N.N.z.v j.t p 2.x.L.$X#X#X$X7X%X4X%X%X7X3X%XmX=X=XNXdX0XV.m ^.].w.x.2X2X5X2X;X",
"&._ 2.k.k.b =.5.e L #X$X$X#X#X#X$X$X%X3X,XV.i.:XhX=XnXDXgX9XwXdXH.J 6.].zXuXtXyXuXkX",
"_ ) 1.6.b *.s.p 9 l.~ B.m.~ ~ ~ l.z.M.M.C.y.#X$X%X6XfXdXH.J.wXJ.eXrX1.%.{.uXtXE.(.(.",
"&.6 _ 6.*.6.%.;  .y.y.0.0.0.X.X.+.+.u.i.m.m.:XV.F.D.D.S.J.9XwXeXeXdXwXd g.vXVXkX).j.",
"{ i &.6.6.=.6 d y.a.y.t.0.0.t.X.+.y.+.r.r.M.C.M.M.M.S.S.F.H.eXNXAXBXgXV.v zXCXcXVXuX",
"z.z.7.%.2.) ; t.q.y.y.q.q.@.@.@...@.@.+.u.i.p.p.M.M.M.S.G.0XeXZXSXSXgXeXm ].CXCXVX;X",
"6.6.*.%.=.) d y.y.t.@.@.@.@.o...[ ..@.@.@.u.i.i.M.M.M.M.S.H.H.0XgXfXgXdX3.).lX;XS q ",
"2.5.%.%.5 6 d +.q.r.w.R w.| | ] ......@.@.y.y.i.M.i.M.M.V.V.1X1X0X0X0XdXe.E.S 8 q a ",
"6.7.&.&.k * r t.q.q.o.| 3.R | ] ] ] ] ] @.+.y.i.y.i.M.V.N.1XG.1X8X0XJ.dX4.j.H a s w ",
"7.j.) 5 5 6 ; X. .......] ] ] ] [ [ ] ] ..@.i.y.i.M.M.M.M.M.S.S.S.F.qXwX&.n.H a F s ",
"7.7.y 3 -.y * [  .....[ [ [ [ ] ] d ] ] ] @.i.i.y.M.M.M.M.M.S.S.F.F.qX9X_ h.H a a H ",
"6.7.&.3 _ ) * ` ] | J A A A H 3.] ] ` `  .t.i.p.C.A.M.B.&X&X*X1XV.G.wXH.y h.D a a H ",
"7.6.i ) ) ( * r a a Q V ~ C f C s d ] d ' t.p.C.S.p.C f V 6X=X=X$X:XeXqX_ h.H a a a ",
"J w.J i %.) * r 8 S Q a 9 9 X & g d r ` ] y.v.D.A.C & X C L ~ =X4XB.eXeX_ h.s a a s ",
"d J J u ) %.* ` | R Q   . % X X g d r ] ..u.p.D.M.B X X $ f V =XpXF.ZXwXy h.a H z.N.",
"8 s s a t &.;  .X.o.Y B X   % g C d { { 4.C.C.H.9XH g $ & B &XnXF.wXSXG.&.s.a U T V.",
"+ + + + t 6.r O.@.O.o.J Z a A J R ] |  .+.D.rXeXgX8Xk.! ~ #X,XV.D.gXAXb.j.P Z Z q S ",
". . o . = y p 0.t.+.u.u.+.O.O.[ [ | d | ' C.wXgXJ.D.D.A.C.p.A.S.9XZXgXb.8.I U F F q ",
". . . . + 9 y | o.O.+.O.O.O.O.m w v :.N m 4.p.A.E.R.E.a.t.y.p.A.qXdXqXU U n n Z F w ",
". . . . . 9 p r ] { ] ' ' ' d h j j h N :.Y.Y.K.K.K..XR.1.2.y.A.9XwXk.G n w w e e w ",
"+ + o . + s * : _ ` ] ] } ' i j j j z l N W..XXXXX.XW.W.{ { 7.p.sXh.G m v 0 e x x x ",
"+ + + o 9 0 , G : y ) _ 2.} _ t j j h h h K.Y..XXXL..XR.p.E.n.|.[.[.d.v 0 0 x n x F ",
"= = + - d w.r.m 2 4 2 4 3 6 3 / h % j h h z K.W.N E XXOX}.oXoX`._.oXh.m n m n x c e ",
"= = - s s R R i 4 : : 5 k %.-.>.d.C z v m M d.Y.N E (. X{.'.~.,.^.}.[.n w % @ # # # ",
"= = a a a a R m : < 4 4 %.#.>.jX!.v L.N M &.*.:.M R.n.>.|.|.k -.^.}.}.m U W ! ~ ! ~ ",
"= - s s d r.z.` p 4 4 v k 2 : k 3 3 k M M c c M *.-.f.~.[.|.!.OX}.`.rX0XpXfXNXZXZXZX",
"r.N.N.N.V.c.4.r 6 4 < 4 4 O : 3 ( #.^ 3 ( / #.$.-.>.=.g.[./.`._._.'. XeXiXiXiX5XfXfX",
"r.R R R J J G 4 4 2 2 4 2 :   2 ^ ( #.#.( #.#.#.-.;.#.f./.'.I.,.I.`.oXaX5X5X5X5X5X5X",
"R s H H D G b b 4 < h l $.k : O #.#.#.( ( #.#.#.%.#.%.g.oX`.^.I.<.^.}.oXBXBXNXNXpX7.",
"J H s J D m b :.:.,.;.;.;.T.@X%.: k ) / ( ^ 5 5 k 5 5 T.~.<.^.`./.~.^.'.jXVXBXZXNXpX",
"J J J D v < 4 *.^.`._.T.,.I.I.>.%.y 5 ( #.k 5 3 2 4 4 < $.<.I./.[.`././.+XjXBX0XfXZX",
"a J F 5.,.E.2X].jX+X+X'.U.@X$.$.5 0 > : : : * : : t 2 4 #.%.>.^.^.^.,.^.^.R.~.yXuXVX",
"U m &.*.,.tXcXcXcXbXbXjXoX_.I.N > > > 7 > O @ > > M b 4 k 4 k *.=.-.=.f.:.g.~.yXOX|.",
"t y *.6.E.tXtXaXcXCXCXDXbXOX@Xv u d u d m u w 0 > > 4 v 4 5 b %.%.*.%.b &.!.j.R.yX|.",
"t U k.E.uXzXuXcXCXxXaXVXCXvX(.&.1.1.1.1.1.G d i u 7 7 y v b 5 y m 5.&.&.*.(.].y E.yX",
"G I c.2X8XxXVXVXzXxXxXcXzXyXb.) 3.4.3.7.3.3.J G d u u w n y 4 y v 5.U m m j.zXpXk.uX",
"8.G c.uXlXxXuXtXzXxXxXxXyX8X&.2 y 7.e.e.e.e.3.1.G s u u w m 5.5.1.5.5.5.8.k.2XVX8XuX"
};
