/* XPM */
static char *left_baby[] = {
/* columns rows colors chars-per-pixel */
"42 42 252 2 ",
"   c #170808",
".  c #210C0A",
"X  c #27150C",
"o  c #3B021B",
"O  c #2A1A15",
"+  c #3A1717",
"@  c #2F031F",
"#  c #35221B",
"$  c #3A261A",
"%  c #2F211B",
"&  c #3A0C24",
"*  c #262127",
"=  c #39282A",
"-  c #3D322D",
";  c #48041C",
":  c #421B1B",
">  c #52081F",
",  c #43291E",
"<  c #480325",
"1  c #55032B",
"2  c #5A0729",
"3  c #5A1529",
"4  c #580A35",
"5  c #5A1635",
"6  c #4D0B32",
"7  c #63042B",
"8  c #66082C",
"9  c #66142D",
"0  c #640B35",
"q  c #6B0C34",
"w  c #6C0E3A",
"e  c #670635",
"r  c #720B35",
"t  c #750A39",
"y  c #6A1737",
"u  c #74133B",
"i  c #731B3A",
"p  c #771738",
"a  c #472A25",
"s  c #572929",
"d  c #4A362A",
"f  c #583A2D",
"g  c #5C2835",
"h  c #4A3838",
"j  c #573A37",
"k  c #692637",
"l  c #732C3C",
"z  c #742538",
"x  c #67373B",
"c  c #763430",
"v  c #5A412E",
"b  c #5A4639",
"n  c #62433C",
"m  c #644A3D",
"M  c #69493A",
"N  c #7A453E",
"B  c #6C4E38",
"V  c #6C1943",
"C  c #7D1544",
"Z  c #741B42",
"A  c #7C1C43",
"S  c #751946",
"D  c #7A0C40",
"F  c #5A3A43",
"G  c #7C2244",
"H  c #7C244A",
"J  c #772845",
"K  c #673747",
"L  c #7D344A",
"P  c #793747",
"I  c #772D53",
"U  c #7D2C66",
"Y  c #7E3A63",
"T  c #5D4A43",
"R  c #594647",
"E  c #644D43",
"W  c #65444A",
"Q  c #634D4B",
"!  c #684745",
"~  c #744446",
"^  c #665245",
"/  c #6B5444",
"(  c #66534B",
")  c #6C544B",
"_  c #6E5A4B",
"`  c #735C4C",
"'  c #74574A",
"]  c #7B4954",
"[  c #6B5D5B",
"{  c #665654",
"}  c #785B55",
"|  c #694D52",
" . c #76624E",
".. c #6E615E",
"X. c #696157",
"o. c #7C6552",
"O. c #796657",
"+. c #71556B",
"@. c #6E6462",
"#. c #716663",
"$. c #766D69",
"%. c #766A67",
"&. c #7A716C",
"*. c #82173D",
"=. c #83353B",
"-. c #914B36",
";. c #A0553D",
":. c #831C43",
">. c #851A48",
",. c #8C1E56",
"<. c #83254B",
"1. c #8A244B",
"2. c #842C4C",
"3. c #862648",
"4. c #83334B",
"5. c #882853",
"6. c #952B56",
"7. c #843A53",
"8. c #8B3655",
"9. c #953658",
"0. c #932E4C",
"q. c #A42759",
"w. c #9B3864",
"e. c #94316D",
"r. c #A82E67",
"t. c #A73968",
"y. c #B62D77",
"u. c #AC3677",
"i. c #B73976",
"p. c #B2326D",
"a. c #AD1F62",
"s. c #864657",
"d. c #98455B",
"f. c #875658",
"g. c #8A5249",
"h. c #816B5B",
"j. c #866759",
"k. c #8B745C",
"l. c #B26C4D",
"z. c #994A66",
"x. c #965865",
"c. c #92566B",
"v. c #A44367",
"b. c #A8576D",
"n. c #A84876",
"m. c #B54677",
"M. c #AD567A",
"N. c #B34970",
"B. c #8A6865",
"V. c #946468",
"C. c #8C7366",
"Z. c #8B766A",
"A. c #8B796C",
"S. c #857466",
"D. c #92776A",
"F. c #956C77",
"G. c #8D7B73",
"H. c #947F75",
"J. c #8E6B7A",
"K. c #A5656B",
"L. c #A46D76",
"P. c #B37075",
"I. c #C8477E",
"U. c #948278",
"Y. c #8E8076",
"T. c #A58B7E",
"R. c #A68671",
"E. c #D09874",
"W. c #DAAE79",
"Q. c #E09860",
"!. c #9A3984",
"~. c #AE319D",
"^. c #D63D94",
"/. c #CC388D",
"(. c #EA38A1",
"). c #E7379C",
"_. c #B94886",
"`. c #B85788",
"'. c #B84F94",
"]. c #AC7289",
"[. c #B16FA9",
"{. c #9D6F84",
"}. c #C64786",
"|. c #D84895",
" X c #C75896",
".X c #D65799",
"XX c #CC518F",
"oX c #C76697",
"OX c #C8709C",
"+X c #D258A5",
"@X c #EA4CA7",
"#X c #E557A7",
"$X c #E959B4",
"%X c #F459B7",
"&X c #DD64AB",
"*X c #D668A6",
"=X c #CA77A3",
"-X c #DB76AA",
";X c #DD69B2",
":X c #D97EB3",
">X c #E36AAB",
",X c #E86AB8",
"<X c #E677B7",
"1X c #F366B9",
"2X c #E4639D",
"3X c #A971C8",
"4X c #F569C4",
"5X c #EA7CC5",
"6X c #F677C7",
"7X c #F870D2",
"8X c #FB5BCB",
"9X c #95888A",
"0X c #8D8A8B",
"qX c #AE8D8B",
"wX c #B091A9",
"eX c #A3A6B5",
"rX c #D79390",
"tX c #EE9D9F",
"yX c #D5AB96",
"uX c #EEB88C",
"iX c #CA98A6",
"pX c #CF8DAD",
"aX c #EE8DB4",
"sX c #D5B6B9",
"dX c #CFB5AE",
"fX c #E7ACB5",
"gX c #F6D099",
"hX c #D1C6B4",
"jX c #EEDAB4",
"kX c #EAD4AB",
"lX c #E583C2",
"zX c #FC83D6",
"xX c #F194CC",
"cX c #DFABCA",
"vX c #DCABD3",
"bX c #E9ABCD",
"nX c #F7A8D8",
"mX c #E9B8D6",
"MX c #F0B4D3",
"NX c #FE92E5",
"BX c #F8B5E1",
"VX c #BBE6E4",
"CX c #D8C9C2",
"ZX c #DCD7C9",
"AX c #DBDAD3",
"SX c #CDC8C6",
"DX c #E1DDD2",
"FX c #E6D0CD",
"GX c #E3E3D9",
"HX c #FFF1C3",
"JX c #FAC3E3",
"KX c #EFE5EB",
/* pixels */
"D.D.H.H.G.H.H.H.Y.G.G.G.A.A.Z.S.A.A.G.L.b.P.&X*X*X#X>XF.....X.{ X.@.[ X...#.#.$.&.&.",
"4.f.Z.Z.G.G.G.G.A.A.A.A.A.S.S.Z.S.} x.d.6.8.9.2X1X>X}.}. X-X=X{...( { [ [ @.#.$.$.&.",
"z g.g.C.C.Z.A.A.Z.S.S.Z.S.A.S.V.V.s.z.P.K.2.i v.>Xt.v.I.I.2X<X&X*X{.%.{ [ @.@.#.$.&.",
"9 N f.C.C.Z.Z.A.Z.S.S.C.A.B.] V.x.:.d.L.K.3.G H oXN.4.d.b..X>XH I.6XxX%.T [ @.#.$.&.",
"9 P B.D.D.D.D.D.C.C.C.S.] 2.4.x.2.3.*.*.*.p u i 6.m.3.t.I.2XXXI e.|.<XJ.j { @.@.#.&.",
"c g.j.j.B.B.D.D.C.C.Z.] f.V.7.*.0.0.3.t z G i e 4 _.|./.t.t.I I u.#X<Xc.h { [ [ #.$.",
"j.f.B.O.j.j.O.j.C.C.j.A x.8.p >.:.>.*.t A A p 4 6 !.7X#X_.u.r.r./.,XvXeXR Q { [ #.$.",
"O.O.O.O.) ^ E ) ' ' s.7.x.p u 0.:.*.*.t r q t 0 6 e.&X7X}.p.N.pX:X;XBXVXR R R | @.#.",
"Y.A.S.C.m b b d v ' K.x.K.p 8 3.t 3.3.:.r Z H 6.V y.u.>X).r.N.pXmX#XxXjXx j j b ( #.",
"&.h.k.D.m b - d m s.8.A 0.*.7 t :.*.:.t w H V S >.XXp.m.zX;Xi.=XcX|.xXjX! a R R [ @.",
"$ $ ^ Y.b d % v f.5.<.:.0.2.7 p x.8.r r 0 5 4 & V  Xr.y.lX<X.X*XOXoXmXHXB.F Q E R { ",
"X % M Y.b $ % B f.:.H 5.1.*.8 8.8.C A D 1 4 6 @ ,.,X~._.4Xy.,X&X_.XXMXgX .Q ( E E ( ",
"O $ ^ Y.v X $ B L <.H >.:.:.2 t 8 p H A w t 4 < 5.'.pX X6Xy.4X&Xr.~.aXgX( T | _ ` } ",
"- d b k.%   $ B z C S e :.8.9 z 9.u A S S r r 4 5 }.JXxX$XXX$X/.U !.<XR.R _ ( _ ..M ",
" .^ b k.O   - B 2.t Z 4 s.K.d.k s.8.r w e e e 4 V XXJX5X7X;X,Xy.U !.oXT ! ^ R _ { ` ",
" .b v O.O   v B J <.H 5 d.K.x.z y J r S S w 4 7 V _.JX$X4X4X@X/.u./.wXT ( T ! { T T ",
" .b , o.O . v v P :.A p i 9.d.p o o 1 Z J V 7 H H r.nX+X/.(.$X&X+X@XwXh T ( ( ( ( ( ",
"/ / d ` = $ v v B.C w 0 < 2 *.t o @ & 1 D w e b.5.e.nX+X~.(.$X+X+X|.[.b R b ^ k.H.qX",
"B m f / # , v m B.I 6 4 1 < 7 3.e o o < w V 8.n.C n.nX[./.#X$X|.+XaX[.[.Q [ U.qXT.T.",
"- v d m $ $ v / ` 5.0 7 q 0 7 u C 7 1 7 4 H 8.5.<._.nXXX$X;X4X@X;XaXyX3X+.{ [ qXqXU.",
"O O % b # $ f m k.f.z 8 8 p p u u G w w 4 0 5.>.p u.MX|.$X_.+X$X|.aXHXdX+.| R R U.T.",
"X . X v O f m ' o.h.4.t 8 8 w q 8 p G Z 8 w c.<.H `.mX'.^._.'.:X}.fXgXdX+.| +.R E U.",
". .   - $ b '  .j.k.k.:.t q 8 2 8 u i 4.H H x.5.2.oXmX!.$Xu.`. X XuXgXB.K Q Q R R ( ",
".   O s z z i k c ' R.f.A p p i r q q i d.x.9.5.H  XmXn.6Xv.r.`.iXE.f.K F F F F R R ",
"X : J i p p p p q 9 N f.3 i e 1 2 1 6 < w 5.D U H M.bX XaX].M.M.c.] K K g F W W F = ",
"X k z k z i z y q 9 8 3 5 i S e 1 4 w 4 1 A H V V M.bX|._.oXbXP.] ] K F F F W R h h ",
"% , c z 9 i p 9 y 8 J H 2 3 5 4 0 S 4 V S H V V 2.iXxX7X/.@XBXF.f.] K K | K W F * - ",
"$ $ f m z z i i 9 y oXt.; o < r V e.,.,.e. X+Xn.b.[.A oX#X%XpX~ W K | h = = * * * * ",
"$ - b b f p y y 9 c.6Xq.; o 1 D >.V C e.V e.7X'.y V >.^.1XbXT.V.x.V.f.G.0X0X0X0X0X0X",
"$ - b v v x l c 3 =X4X6.; o D >.e H w.5.V I 4X&X6.q.&XzXtXhXSXDXZXCXCXZXAXGXGXGXVXGX",
"v  .o.k.k.k.g.N ! lX1X*.; 2 t w y n.9.V U e./.nX,Xy.6XtXQ.Q.E.dXDXAXdXiXSXSXhXcXSXSX",
"s f h.o.` ' / m f.zX|.r 1 7 e < 5 5.5.*X|.,X1X@X8X7XfXyXE.tXyXkXCXCXt.6.b.=XcXL.9XdX",
"o./  . .Q ^ ) m V.7Xi.7 > > q < < e D 5.+X%X4X^.%X5X:XpXcXZXCXdXiXP.1.6.8.M.<XpXK.P.",
" . ./  .^ ^ ) j {.7X6.> > 8 k 3 6 A >.8.M.lX%X.X5Xr.y.6.z.b.N.N.6.0.L 5.4.z.*XBXsXR.",
" .^ B _ _ ' ! b L.<X0.8 3 g k ; 6 C 5.].pXpX%X5Xm.i.}.A V >.i G J J <.J L L `.nXKXZX",
"( m T T ' ' ` ! F.-Xp y x k 3 < 0 A <.z.=XbXzX_.>.u.I.q.i 9.9.z 7.7.<.L L L 7. XbXdX",
"b T n j m ' T ! B.=Xy x T x 0 3 Z L u n.vXKXaXN.t 6.I.N.3.1.v.l ] s.k J P L P Y sXhX",
"h - : + + s R j ! qXx M n b g y k 9 =.K.fXP.q.p.1.p.}.v.3.0.8.8.] L ] f.P J 7.u.fXhX",
"b a + j a : x ' M ].V.n ! x j g 5 c ;.l.uXuXc 4.t.N.p.v.w.8.k z.J 5 | V.f.K z.fXZXhX",
"b b : d a : a ` ' } wX) m ^ f ; 3 ;.Q.l.l.gXP.3 l l J 4.l l k 4.z.= g ] ] c.sXZXZXDX",
" . .f , : v j.' ` ' B.` / f > 3 ;.E.l.-.-.l.l.c k y l J l k k k v.P K P.R.W.jXGXGXDX",
"h.j.j. .' j. .j.` ' ) ' k 3 > =.l.c c c ;.-.> f x x ~ ] f.c.D.R.qXqXdXhXW.Q.W.kXZXZX"
};
