/* XPM */
static char *right_baby[] = {
/* columns rows colors chars-per-pixel */
"42 42 250 2 ",
"   c #251614",
".  c #390C1B",
"X  c #36241C",
"o  c #2A1726",
"O  c #3A2825",
"+  c #362831",
"@  c #160E0F",
"#  c #4A0728",
"$  c #5C042D",
"%  c #570928",
"&  c #4A132B",
"*  c #5A142C",
"=  c #560832",
"-  c #5A1736",
";  c #4A1734",
":  c #66072E",
">  c #690833",
",  c #750A37",
"<  c #641533",
"1  c #6B1A34",
"2  c #6C143A",
"3  c #641B3A",
"4  c #6B1A3B",
"5  c #651736",
"6  c #721B36",
"7  c #7A143C",
"8  c #741C3C",
"9  c #7C1A3E",
"0  c #74143A",
"q  c #62122C",
"w  c #462829",
"e  c #4A3729",
"r  c #5A2538",
"t  c #4A3538",
"y  c #533534",
"u  c #63233B",
"i  c #6C233B",
"p  c #692538",
"a  c #73243C",
"s  c #7C233E",
"d  c #752A3E",
"f  c #6B353B",
"g  c #42191E",
"h  c #594535",
"j  c #5A422E",
"k  c #64483C",
"l  c #68543C",
"z  c #764F36",
"x  c #7C1B43",
"c  c #791842",
"v  c #70134C",
"b  c #5A3843",
"n  c #4F3448",
"m  c #6B2744",
"M  c #7D2345",
"N  c #782845",
"B  c #643B48",
"V  c #783549",
"C  c #7E3F50",
"Z  c #792562",
"A  c #5D0F49",
"S  c #4F464C",
"D  c #5A4646",
"F  c #5A5054",
"G  c #674847",
"H  c #7A4447",
"J  c #6C544A",
"K  c #685648",
"L  c #755949",
"P  c #684D54",
"I  c #764856",
"U  c #655453",
"Y  c #6A5C5C",
"T  c #6A5A55",
"R  c #765B56",
"E  c #75634B",
"W  c #6D605F",
"Q  c #7B6454",
"!  c #796758",
"~  c #72775C",
"^  c #745C63",
"/  c #6E6361",
"(  c #756C69",
")  c #756967",
"_  c #78716D",
"`  c #7C7471",
"'  c #7C7976",
"]  c #586165",
"[  c #862239",
"{  c #8E523B",
"}  c #96593D",
"|  c #8C4B3C",
" . c #841D45",
".. c #890D4A",
"X. c #A3165E",
"o. c #822B46",
"O. c #842B4C",
"+. c #882649",
"@. c #93284B",
"#. c #87354A",
"$. c #862C51",
"%. c #8B2B52",
"&. c #952A56",
"*. c #8A3755",
"=. c #943757",
"-. c #9F3342",
";. c #A83545",
":. c #B13247",
">. c #973766",
",. c #932F6C",
"<. c #A82666",
"1. c #A9376A",
"2. c #AB3A74",
"3. c #B9377B",
"4. c #B02C72",
"5. c #9A1E7A",
"6. c #C83476",
"7. c #C3385D",
"8. c #894A49",
"9. c #855748",
"0. c #985947",
"q. c #884758",
"w. c #934557",
"e. c #925552",
"r. c #9B6545",
"t. c #836958",
"y. c #88745C",
"u. c #8F6A51",
"i. c #A5694A",
"p. c #A8745A",
"a. c #AD6D56",
"s. c #974965",
"d. c #8A5764",
"f. c #9B5C6B",
"g. c #965666",
"h. c #935069",
"j. c #A6456C",
"k. c #A25C6C",
"l. c #B64678",
"z. c #AA5676",
"x. c #B3577D",
"c. c #B2476F",
"v. c #886B67",
"b. c #9A626C",
"n. c #8C7B6C",
"m. c #897469",
"M. c #986A75",
"N. c #8C7C72",
"B. c #837977",
"V. c #917D72",
"C. c #987A78",
"Z. c #90726D",
"A. c #A56879",
"S. c #A7706C",
"D. c #AC4750",
"F. c #C34B77",
"G. c #C96776",
"H. c #7E8464",
"J. c #8C8676",
"K. c #95857A",
"L. c #8C9375",
"P. c #8D8F6F",
"I. c #A88268",
"U. c #B08B77",
"Y. c #9AA378",
"T. c #C6955D",
"R. c #CF946C",
"E. c #D2A46D",
"W. c #BA3C82",
"Q. c #B33289",
"!. c #D03488",
"~. c #B94685",
"^. c #BC5587",
"/. c #AF578A",
"(. c #917683",
"). c #B86988",
"_. c #AC7382",
"`. c #BB6E92",
"'. c #C4468A",
"]. c #C94892",
"[. c #D64796",
"{. c #CA5897",
"}. c #D5569C",
"|. c #C85588",
" X c #E4569B",
".X c #CA6698",
"XX c #CE6D93",
"oX c #D959A5",
"OX c #D152A8",
"+X c #E749A4",
"@X c #E558AC",
"#X c #F154B1",
"$X c #D764A8",
"%X c #D976AC",
"&X c #D77CB3",
"*X c #D06FA9",
"=X c #E968B8",
"-X c #F264BC",
";X c #E575BC",
":X c #ED67A7",
">X c #EE629F",
",X c #ED5DC9",
"<X c #ED6CC4",
"1X c #F969C6",
"2X c #F576C8",
"3X c #FC79D5",
"4X c #7F8386",
"5X c #95958B",
"6X c #998F8C",
"7X c #A68884",
"8X c #B48689",
"9X c #A9958A",
"0X c #B49A87",
"qX c #B79B95",
"wX c #A99494",
"eX c #A9A897",
"rX c #B5AA9B",
"tX c #B0AB92",
"yX c #B8B6A5",
"uX c #B5AFA6",
"iX c #C79598",
"pX c #D9B793",
"aX c #D190B2",
"sX c #E492B0",
"dX c #C6B8B4",
"fX c #CBAFAF",
"gX c #BDC1A6",
"hX c #CBC6BB",
"jX c #D5C6B9",
"kX c #E3C5A5",
"lX c #DFC39B",
"zX c #FA8AD9",
"xX c #FC99DA",
"cX c #F285C8",
"vX c #FE94E4",
"bX c #FF8AE3",
"nX c #FFA9EA",
"mX c #FDB7EB",
"MX c #D9A8C7",
"NX c #CACBC3",
"BX c #D3CDC4",
"VX c #D7C5C7",
"CX c #D9D3C8",
"ZX c #DBD9D3",
"AX c #D1CECB",
"SX c #E2DCD5",
"DX c #EBCED7",
"FX c #DBE1DC",
"GX c #E3E3DB",
"HX c #F3D0F0",
/* pixels */
"6XJ.K.6XN.J.J.N.N.B.N.v.c.>X>XXXA.M.M.(.M.d.b.7XW / W W W W W W W W / ( _ _ _ ' H.' ",
"K.K.C.V.B.N.N.N.N.V.M.z.*.%.l.}.:X|.&XvXzX{.1.G.B.S Y W W T Y T Y W ( / ( _ _ ' ' ' ",
"n.V.N.N.n.B.N.N.b.*.$.M 3 - 3 v &.^.xXvX1XzXzX<X%XC.S n F U T Y Y W / ) ( ( _ _ ' ' ",
"V.N.V.n.n.m.m.Z.s.*.g.d.N c x N m sX3X1XW.Q.=XbX-X7.|.v.+ F U U U U W / / _ _ ' ' ' ",
"V.J.N.n.Z.m.J.B.x g._.k.$.$.$.+.k.HXmX].,.Z 1.-XzX@X7.sX^ b F F f D W W / ) _ _ ' ' ",
"Z.V.N.n.n.B.5Xd.- x +.7 %.$.$.,.h.fXsX@X5.v 2.=X1X1X-X@XsX^ D G y P Y Y Y ) _ _ ` ` ",
"v.t.! m.m.V.I.*.A < = 3 $.7 *.*.M /.].oX~.l.*X$X;X#X3X<X:XsXB w S F F U Y / ( _ ` ' ",
"J J U K L p.U.V 5 m v c o.c  .*._.MXsX;XX.<.@X3.[.!.!.=X+X=X<Xm w b D P J / ( _ _ ` ",
"D D j e l S.I.w.w.=.x x M N c N C._.sXxX~.4.+X..+XW...].2X#X3XcXr w y b D Y ( ( _ ' ",
"l t X h L I.p.%.*.%., x x m c c f.A.z.}.zX=X!.Q.!.4.> ,.MXHX3XmXaX; t b F T W ( _ _ ",
"h X X h L p.p.2 x x x x > 2 s.d.k.k.A.x.oX1X~.X.Q.v # &.aXmXvX<XxX) D G G D U W / ( ",
"e X e j z r.p.u : +.$.$.c 2 f.h.g.k.k.x.{.#X2XQ.5.A # ..!.-XoX#X3XiXD G G G U D U Y ",
"O   e l l z p.V >  .x O.0 > q.q.f.k.k.k.z.~.,X2X5.= > 1.OX<X!.1X1XcXS.K L T J B G T ",
"@   e z j k r.e.f.h.o., 0 x c c b.k.k.f.k.h.OX,XOX, c !.oX<X1X;X3XcXQ D T L B L R ! ",
"@   k l e h z p.A.M.f., M O.$.2 g.M.k.f.h.d./.@X#X3.X.[.@X#X].[.3X=XD D J G U W ! t.",
"@   l j k { W u.=.=.o.7 c c c , V b.b.f.b.f.h.].3X=X}.zX=X4.<.[.1XzX^ U U D G W ! U ",
"  X h h K Q ] _ w., +.$.+., c M 9 V g.f.s.%.q.b.=XzX2X$XW.2.{.2X3XzX^ S U Q m.7X7X7X",
"X e j l K R S H.0.7 9 +.O., > c M :  .x , v %.f.XX2X[.6.<.2.oX<X3X].n ^ 7X9X7X8XtX0X",
"X X h K P & + J.i.#.O.9 , = # : , q x c > c &.oX-X$X}.~.4.l.[.+X3X/.G ^ v.qX7XU.qXrX",
"X O y U B ; { p.i.e.O.+.: = # = , : c 8 ,  .'.#X].~.3.'.OX;X=X1XzXM.b P t ^ 7XK.7X9X",
"X j h K t H p.p.i.0...7 x , $ $ > $ $ , O.^.2X}./.).{.!.oX@X=X3X&XI I Y P n Y (.7XwX",
"X j K ! B 0.i.i.i.} , 9 #.o.0 $ = = # : 1.=X[.`.aXMX*XQ.{.OX3X;Xd.B B b G D D ^ wXdX",
"e l l E y.8.} } } } [ [ 9 9 > $ $ $ : 8 {.}.<.).`./.Q.OXW.oXzX`.B B b b b b n F ^ wX",
"h K L ~ y.9.{ { } { | o.[ : % = $ > o.j.|.s.>.%.v &.$XW.].vXnX).- r b B P b + S ^ / ",
"k L Q y.y.y.z z 9.9.e.q.9 9 6 1 5 8 M M N 1 $ $ c .X].{.xXnXmXh.m I I b B n + S m._ ",
"E E P.~ E E u.n.t.8.#.8.6 i p & . # % # * v s./.!.oX<XsXmXvX.X$.&.&.s.h.n o o o ! ` ",
"l l E E y.y.y.y.9.[ #.V p r V I 3 : - > 5 A.aX.X<X3X'.c.^.&.c  . .@.@.=.d.(.4X' 6XuX",
"h K T H.I.P.I.I.b.8XU.q.V p 6 8 2 2 > $ 2 ,.1.c x OX]. ., ,  . . .@.@.%.%.s.AXFXAXZX",
"f z L J.J.y.Q L L R Q 9.V a : : < N 6 # v Z ..>.~.W.[.j.0 7 9  .+.@.@.&.=.@.>.uXAXNX",
"Q t.L t.E K J J J k k G B 1 % % # % 2 = - A c >.{.~.@XOX6 0 9 [ +.+.+.@.&.1.=._.AXAX",
"y.y.y.! y.Q 9.L J J f k k : . . . # * M 4 < N M V ,.}.@X+.6 9 o.[ %.%.#.=.%.=.=._.iX",
"! y.Q E T ! t.R L R K J G < % # # # & - 3 2 m 3 >..XoXc.a 1 +.o.o.+.=.=.*.w.*.,._.FX",
"E T H m p 1 p p z f 1 1 1 * 1 - 5 * & & u 3 ; m ,.}.{.*.3 s.o.O.iXa.@.+.8XZX8Xw.h.VX",
"D H V d 1 % % % q a % a < % < & ; u - & - i m >.~.{.oXV >.DXqXA.SXpXS.*.jXjXjXS.*.fX",
"J #.#.*.s % # & * % * d q 1 i * % & p & & m u i z.<XoXQ.;XSXGXSXSXGXSXjXjXjXjXdXq.dX",
"R V #.>.j.a % * * . q 6 1 V a 2 1 * i f u V p u C oXaXaXVXBXCXCXCXSXSXSXjXSXZXSXNXCX",
"v.H s c.^.%.+.[ 1 & i N 8 6 6 a p d s * r u i N *..XDXCXCXBXhXBXVXhXBXjXE.kXFXFXGXGX",
"! v.e.1.4.1.|.%.[ p d [ 6 6 s a d a * p j.8.V 8.x.sXDXjXCXCXBXBXhXdXdXrXT.E.lXFXjXpX",
"! Q v.k.G.F.{.%.[ g.N 1 1 N d 1 d w.{.2XbXXX{ { I.R.kXjXBXAXrXL.hXhXgXuXpXE.pXNXT.E.",
"Q Q Q C.iXaXsXiXg.b.V f 8.d V w.c.XX$X|.F.D.} i.i.a.E.VXhXhXtXY.Y.tXuXL.L.eXyXuXT.E.",
"t.t.L t.u.K.qXfXU.u.#.).XXXXS.7.7.-.[ ;.;.-.} i.i.U.0XhXhXAXgXyXeXP.~ ~ P.H.P.eXU.Y.",
"m.n.n.n.m.Q K.rXeXt.8XMXdXhXrXD.:.;.;.:.-.:.:.;.;.G.rXuXgXAXgXhXhXL.~ ~ P.P.H.P.rXhX"
};
