/* XPM */
static char *_ab3eb0284a64fcbd0c4504c9e1ed46bCywjlNARBqBkBoAp[] = {
/* columns rows colors chars-per-pixel */
"42 42 220 2 ",
"   c #5C1E01",
".  c #531900",
"X  c #5F2103",
"o  c #642202",
"O  c #6B2301",
"+  c #682B08",
"@  c #732601",
"#  c #7B2A02",
"$  c #742A04",
"%  c #79350B",
"&  c #7A3E15",
"*  c #6D370B",
"=  c #365D0C",
"-  c #3B5E13",
";  c #365B14",
":  c #36620E",
">  c #3A640E",
",  c #3C6B0E",
"<  c #366E0E",
"1  c #3C730E",
"2  c #3F7C0C",
"3  c #3C6413",
"4  c #3D6B13",
"5  c #3A6615",
"6  c #3E7312",
"7  c #3E7613",
"8  c #7D4516",
"9  c #426D0E",
"0  c #42640F",
"q  c #43740E",
"w  c #447B0F",
"e  c #49730F",
"r  c #426514",
"t  c #436C14",
"y  c #4A6E15",
"u  c #436419",
"i  c #446C19",
"p  c #4A6C1B",
"a  c #496618",
"s  c #447313",
"d  c #4A7415",
"f  c #457A14",
"g  c #4B7B14",
"h  c #457319",
"j  c #4A741A",
"k  c #457A19",
"l  c #4C7C1A",
"z  c #517517",
"x  c #527D16",
"c  c #53741C",
"v  c #527C1B",
"b  c #5C791C",
"n  c #506916",
"m  c #476A21",
"M  c #4D7420",
"N  c #4E7A22",
"B  c #537B22",
"V  c #567622",
"C  c #516C22",
"Z  c #843808",
"A  c #84340A",
"S  c #87460C",
"D  c #945509",
"F  c #904E11",
"G  c #885415",
"H  c #985D1D",
"J  c #88500F",
"K  c #9E6505",
"L  c #9E660D",
"P  c #996714",
"I  c #9F7013",
"U  c #A06705",
"Y  c #A26A07",
"T  c #A46C0A",
"R  c #A6700D",
"E  c #A9720E",
"W  c #A26914",
"Q  c #AA7611",
"!  c #AD7A15",
"~  c #AE7B19",
"^  c #A67618",
"/  c #B07E17",
"(  c #B17F18",
")  c #885A22",
"_  c #975A24",
"`  c #8C642B",
"'  c #98692E",
"]  c #A77A2B",
"[  c #A97B34",
"{  c #9B7A4D",
"}  c #47840F",
"|  c #458312",
" . c #4B8215",
".. c #4D821B",
"X. c #4E8916",
"o. c #528416",
"O. c #53821C",
"+. c #55891A",
"@. c #568223",
"#. c #588A25",
"$. c #548E21",
"%. c #718F49",
"&. c #AD811D",
"*. c #B98411",
"=. c #B4831C",
"-. c #B7871A",
";. c #AE8123",
":. c #AE812C",
">. c #B58922",
",. c #BA8C23",
"<. c #B98B2A",
"1. c #B38727",
"2. c #BD9126",
"3. c #BD932A",
"4. c #BE992D",
"5. c #B58B37",
"6. c #BF9A32",
"7. c #BA9137",
"8. c #A88032",
"9. c #C2921C",
"0. c #C1962A",
"q. c #C29A2C",
"w. c #C69926",
"e. c #C39D32",
"r. c #CCA32C",
"t. c #CCA62C",
"y. c #D6AC22",
"u. c #D8AF24",
"i. c #D3AC2A",
"p. c #D9B126",
"a. c #DBB52B",
"s. c #DAB52E",
"d. c #CAA433",
"f. c #CFA934",
"g. c #C6A339",
"h. c #CBAB3D",
"j. c #C8A53A",
"k. c #D2AE3B",
"l. c #D5B032",
"z. c #DEBB34",
"x. c #D4B23C",
"c. c #DCBC3E",
"v. c #D8B536",
"b. c #E0BE37",
"n. c #DFC13F",
"m. c #E2C23C",
"M. c #E1C037",
"N. c #B89759",
"B. c #B79048",
"V. c #85A756",
"C. c #899F6F",
"Z. c #9AB17A",
"A. c #92A96D",
"S. c #C49F47",
"D. c #C6A545",
"F. c #CDAD42",
"G. c #C8A94B",
"H. c #CEB246",
"J. c #D1B544",
"K. c #D5BB4A",
"L. c #D6B847",
"P. c #C8AA58",
"I. c #CEB356",
"U. c #D7BC57",
"Y. c #C19F60",
"T. c #D5BE63",
"R. c #CFB572",
"E. c #DCC34D",
"W. c #D7C04F",
"Q. c #DBC554",
"!. c #DDC858",
"~. c #E3C543",
"^. c #E5C945",
"/. c #E1C44A",
"(. c #E6CC4B",
"). c #E8CE4C",
"_. c #E9D04E",
"`. c #E2CF5B",
"'. c #E2CC54",
"]. c #EBD554",
"[. c #E5D45D",
"{. c #EDDB5C",
"}. c #E9D456",
"|. c #DDC866",
" X c #D7C176",
".X c #E0CC6C",
"XX c #EBDC63",
"oX c #E4D464",
"OX c #E0CE71",
"+X c #E3D373",
"@X c #E6D778",
"#X c #EFE36A",
"$X c #EDE167",
"%X c #F1E364",
"&X c #F2E66A",
"*X c #F4E96D",
"=X c #EDE17E",
"-X c #F2E977",
";X c #BAA88F",
":X c #CAB694",
">X c #C9BBA9",
",X c #D9C89D",
"<X c #C4D09F",
"1X c #E6DC8C",
"2X c #EADE92",
"3X c #EEE589",
"4X c #F0E891",
"5X c #D8C8AB",
"6X c #D1CEAA",
"7X c #E4D8AB",
"8X c #E5DBB3",
"9X c #EADEBA",
"0X c #ECE5BA",
"qX c #D8CFC4",
"wX c #E4DAC7",
"eX c #ECE5C7",
"rX c #F7F3CB",
"tX c #F3EDD5",
"yX c #F5F1D7",
"uX c #F2EBCB",
/* pixels */
"> r t 3 t j b a - > 3 3 t 3 h r , q c b c y d y d v > 0 g d d = 5 s x g l j O.d d s ",
"4 3 t 4 > 3 j p t 3 > t d 4 g  .s q t a n y d d t 9 d 3 t s q X.l s t , f s q e s f ",
"3 - 3 3 d i 3 0 d j = q e x x o.g 4 , e y O.c t g , i h t , , 7 h O.g  .+. .|  .s  .",
"3 3 4 i 4 h a r 4 t t d r d l g s q f x g g f i c t 0 O.x j k s i t  .d 3 s 4 ..+.f ",
"t r r r h s d j y r 3 s s d f 6 4 , 0 t g q , s x j  .O.g 4 5 k +.l X.t r s  .4 4 = ",
"3 3 - t s s d j p j h 4 i h : , s j tXeX8X0XeXuXh t 9 g d s r t l j j g r , q q 4 : ",
"r r 4 3 3 s c h r h h h 4 4 m 8X XI.H.K.W.!.`.oX@X4X0Xt c s u r s j v x z r , 4 g s ",
"3 s 4 r - i j l j i h s C.,XS.3.4.j.h.j.e.4.6.F.Q.XX#X3X7XB r i l j l j v j f q q , ",
"y s i t 3 4 4 j l i f wXN.! =.h.`.(.x.t.t.t.d.e.4.4.K.$X*X1X<Xh s g s j  .X. .h t , ",
"4 > t t 5 6 k ..l i 5X:.K ,.E.{.^.z.p.y.a.M.^.].{.`.h.e.Q.*X3X0Xs h 4 : s f f  .O.g ",
"..k 4 > i h M l j 5X:.~ 0.x./.).~.b.s.u.y.l.c.(.].%X*X[.g.J.*X-XeXg ..h i 4 6 w  .q ",
"N 3 - > 4 l h j wX5.e.d.2.Q r.(.(.m.z.i.J * 3.~._.{.&X*X#XF.F.*X=XyXl #.s 4 4 4 4 > ",
"@.s r - 3 j l ;XP.K.x.-.Y K / x.).^.m.l.* . ;.m.^.].%X&X*X&XF.J.*X3X%.l i s s s X...",
"d s i u , 4 j ,XQ.'.9.E Y K Y 2./._.c.1.+   G 3.c.).{.%X*X*X#Xj.Q.&X0Xd t s 9 s O...",
"r c p r t s @.T.XXr.! E T Y K E d.F.G X       o G x.].{.&X*X*X[.e.XX=Xd j v q 6  ...",
"p y u , h j 0X!.L.*.! Q R T U K ~ 8     X + X     ] (.].%X*X*X*XF.K.XXuXl s h 4 f h ",
"N j i 4 l s 1X'.t.=.! ! E T Y U D o o + [ D.5.8 ) x.m.).{.%X*X*X[.e.[.2Xs 6 h 3 s 4 ",
"p j r i ..g +XE.w.=.=.! Q E T Y S o o 8 /.m.b.k.f.p.z.~.].{.&X*X&X6.Q.+Xm h f 4 t 2 ",
"C B c y g <XoXK.q.>.=.( ! Q R T D o o + 7.~.m.s.u.y.a.m.(.].%X*X*Xh.F.|.tXs q g t g ",
"M M i d l rX`.K.e.,.=.=./ ! E T W & o O + H e.z.s.y.u.z.m.).{.&X*XJ.e.Q.eXk 6 f  .q ",
"p M p j c 0XW.K.g.,.,.=.=.! Q E R ] & O O O $ H t.a.y.p.z.^.].XX*XK.3.K.8Xl 4 < 1 6 ",
"h j j j 4 8Xx.U.h.2.,.,.=.( ! Q T R ] _ % O O O S r.p.y.a.m.(.].%XK.1.H.8Xg 3 > 6 6 ",
"l O.i l s 9Xr.U.H.3.2.,.=.=.! ! E T Y ^ ] _ $ @ @ P a.y.u.z.~._.{.J.>.F.9Xk s g l ..",
"l l p v y eX0.H.U.0.3.,.,.=.=.! Q E T U K ;._ @ @ S l.p.y.a.z.^.].h.3.D.tXt s  .s t ",
"d z c j p Z.7.g..Xe.0.2.,.-.=./ ! L T T U Y P $ @ S v.s.u.u.s.m.(.h.3.G.%.j j f s - ",
"j p i g B V Y.>..XF.q.3.2.,.=.=.W # Z D D D Z # @ H m.z.a.y.u.z.~.h.-.R.7 h h 4 h r ",
"g o.d h h p 5X^ I.|.q.0.3.,.,.=.F # # # # # # # % S.^.b.s.p.y.a.(.6.&.7Xh l f s t i ",
"x o.h i s x %.[ 1.@XF.q.3.2.,.>.:._ A # # # # Z [ /.).~.z.a.y.z.Q.Q B.j e s h h y s ",
"l d t f g v x :XP G.@Xg.q.3.2.,.>.<.5.] Z # _ ] ~ d.(.(.m.z.a.(.<.L :Xq h O.+.f r t ",
"h t 4 3 r y O.Z.{ I T..Xe.0.3.,.>.=.=.~ Z A D U K =.c.).^.m.^.J.T B.A.O.d x s s h l ",
"; 4 h 4 d z j v qX` ^ |.|.e.3.2.,.=.=.~ H _ W Y K Y 0./.).~.E.4.[ wX6 g o.O.k f g | ",
"- 3 s t d c x l l >X) ^ U.+XF.3.,.,.=.=.<.<.! T Y K Q f.n.'.K.7.5Xg , s s g l X.w w ",
"j r 4 t t s #.+.g d >X` I D.OX!.g.2.-.=.! ! E T T T =.l.{.[.G.5Xs f f t 4 1 f f X.g ",
"l s h 4 s 4 6 g s h g qX{ P ;.G.|.U.F.e.3.,.-.*.*.w.L.[.`. XeXt y g f 4 4 1 6 1  .f ",
"j r i i h s j 3 s h 4 l Z.;X' P &.e.h.F.F.h.f.k.L.'.oX+X7XV.g d c X.f 1 , 7 1 s h  .",
"p a j h 3 t y j h g s t 4 i %.>XN.8.;.>.2.d.J.!.=X4XrXs O.g s f f s 1 2  . .} } j l ",
"y u j i h t d r i l g r i t s , o.A.wX5X,X7X0XyX, 4 4 3 i l 6 f f 1 1 7 4 1 2 |  .l ",
"3 3 j 3 i s d h M l t t > 4 4 , s s g a t j r t 4 s ..O.j ..g  . ., q g 6 , < 6 l l ",
"4 , t i k g j g x s 3 1 d g 7 d j x l r p h 4 h 4 s l l t h s f , s k  ...6 s 6 #.i ",
"4 l s s g g i f f s , 7 t s w f h j @.M y h h B 4 7 f k j l s } r 4 f k g 6 s g g t ",
"r s ; : 6 s h f | , 9 h : , , 6 d l j V y h k 4 j i f 6 4 4 k  .s 7 k , q  .f  .s > ",
"> 5 5 , 4 s h k g t s d j 4 : 4 @.p t j c B t s h 3 t > < f k j f 2 < 4 3 f } $...| "
};
