/* XPM */
static char *door_close[] = {
/* columns rows colors chars-per-pixel */
"42 42 39 1 ",
"  c #6D5C49",
". c #70604D",
"X c #7D6D5A",
"o c #847462",
"O c #8E8174",
"+ c #928372",
"@ c #978B7D",
"# c #A09181",
"$ c #A6998C",
"% c #AB9F95",
"& c #ACA197",
"* c #B1A494",
"= c #B3A99D",
"- c #B6ABA1",
"; c #BDB1A4",
": c #C0B6AC",
"> c #C5BBB3",
", c #C8BFB9",
"< c #CCC3BC",
"1 c #D0C6BC",
"2 c #D2C9BE",
"3 c #CFC6C1",
"4 c #D0C7C3",
"5 c #D3CAC5",
"6 c #D6CDC9",
"7 c #D8CFCB",
"8 c #D7D0CB",
"9 c #DBD3CD",
"0 c #DED5D2",
"q c #DFD8D4",
"w c #E0D7D5",
"e c #E1DAD5",
"r c #E4DED9",
"t c #E7E0DC",
"y c #E9E2DE",
"u c #ECE6E1",
"i c #EEE9E5",
"p c #F0EBE7",
"a c #F3EDE9",
/* pixels */
"668866666664464444443,,4444444444447777806",
"0rqrqrqqwq00w000wwwwq800080080wwqqqqqqrwr0",
"60tqwqqqqqqq0ww0w0wwq8qq00000000qqqqrqwr08",
">5t00utuwqw88rrrw8www8wq8wrrw68wqqurt6qt,;",
"4wu88yttwqr86rrr08wrwqrq8wrrw40w0qtur4ey84",
"ruu08yytwqt08rrtw8rtrqrw0wrrr4wrqrurt5ruur",
"riuw0tuyrqtq8tttw0rtrrrr0wrtw6wtqruty6eyit",
"rii00uuyrwtw8tttwwttrrtr0rttt8wtrrtuy6rpit",
"rpitqrrrqrur0qrrqqtttrutqqqqq8turrrrrqyppy",
"rppiiiiiituuuuutuuuutruuttttiuuuuuuuuipppy",
"taatrpiiiturruuutruuttutrtuuiqtuyyiiieypay",
"taarrppptturwuiitruiuuutrtiii8tuyyiip0yaau",
"taattappititriiitruiutiuquuiu8uuyyiii0yaau",
"taatrappititriiittuiuuiuruiiu0uuyipap0uaau",
"taatrapputptwipitriiuuiiriiiiquuyippp0uaau",
"taaptiiitiptrtuutriiiuiirtuutquuyyiiieiaau",
"yaaappppppppipipiiiiiiiiiiiiiiiipppppaaaau",
"yaayyppiuypyyyiyttiiiiiituiiuriiuuiiiypaau",
"yaayypaapypyeppputiiiiiituiiiquiuipapwyaau",
"9payypaapupyeppputiiiiiitiiiiquiuipaawyair",
"2yayyppayupyyppputiiapiiriiiiquiuiaapwua92",
"2payypaapypyeippttpiaaiiriiiiquiuiaaawuat0",
"raayypppyypyeiiutr8qiu8qtiiiiquiuupapeuaay",
"raaapppppppyiuuui8oO,&X&tiiuiuiiiippppaaay",
"raayyyuyyuiyyyyyr2.+2@.@rryyytuiuuuuurppat",
"raaeyaapyyieeuyyq9@@q1+;qryuu9yuruippwuaat",
"eaayrpppyyieeuuyqq22e9;9qeyuu9yuuiipp9yaar",
"eaperppiyyyeeuyye9@*r2@;qruuy9yyrupipwraar",
"eppeepiiyyyeeuiyee:1ye:2eyuuy9tyriiii0rppr",
"epperppyyyyeeuyyteuyiiiyeyyyu9tyruiiu0riir",
"9piyyyyyyyyyyyyyyyyyiuytrtyyyryyruuuuruuiw",
"euuytyryeyyyeeeeeryyiuyyeerreryyyrrryruuiw",
"euu90trr00t99ree99ytyyye29eee2eeeeeer5euuw",
"eyy90yyyeet99tyte9ttyyye9yyyy9eyeeyyy7wuuw",
"eyy29ttt00t89ttt99reuyre2eeey2ee0eyyy50yy0",
"eyy99tet99r89eee99eeyyee9eeye29e9eryr20yr0",
"19t29tte99e22eer97qqyee02eeee29e9errr27rw,",
";2t9qqeeeqe9qqee09eeyre99eee999e9eeee79w,-",
"<8eeqqqqeqeeee00w9w0rrww9e99e9ee0eewweww,>",
"9qqqq00qe99e9909w909rw00e99e9e999990000007",
"9ww9090099e990090990rw99079997997770700095",
"777777777772727255554<54314444114331454561"
};
