/* XPM */
static char *_d0a0609fd1d4ee6d9c45066e2193be4sVOvGWhI7g8GQa8x[] = {
/* columns rows colors chars-per-pixel */
"42 42 174 2 ",
"   c #375D11",
".  c #3A5B12",
"X  c #34640D",
"o  c #3B650E",
"O  c #376B0E",
"+  c #3D6B0E",
"@  c #3D720D",
"#  c #3E780C",
"$  c #376411",
"%  c #3B6412",
"&  c #3D6B12",
"*  c #3E7112",
"=  c #3F7219",
"-  c #43660F",
";  c #436E0E",
":  c #486F0F",
">  c #43750E",
",  c #4A730F",
"<  c #42790F",
"1  c #436613",
"2  c #4A6516",
"3  c #436C13",
"4  c #4A6E13",
"5  c #446519",
"6  c #446C19",
"7  c #4D6D1A",
"8  c #506916",
"9  c #447313",
"0  c #4A7414",
"q  c #457A13",
"w  c #4B7B14",
"e  c #467319",
"r  c #4B751B",
"t  c #447919",
"y  c #4D7C1A",
"u  c #517517",
"i  c #537C15",
"p  c #52761B",
"a  c #527C1B",
"s  c #446D20",
"d  c #4E7723",
"f  c #547620",
"g  c #547C23",
"h  c #5C7F36",
"j  c #597C39",
"k  c #857258",
"l  c #8C795F",
"z  c #8E7D64",
"x  c #8D7F6C",
"c  c #49810F",
"v  c #4B8114",
"b  c #4D8817",
"n  c #478119",
"m  c #4D8219",
"M  c #528616",
"N  c #53831B",
"B  c #59821C",
"V  c #518B1A",
"C  c #588B1B",
"Z  c #4D8120",
"A  c #568320",
"S  c #5C8121",
"D  c #568926",
"F  c #5B872B",
"G  c #59892B",
"H  c #5E8338",
"J  c #608B23",
"K  c #668F3D",
"L  c #65923C",
"P  c #6F8E4C",
"I  c #6B8A42",
"U  c #74944E",
"Y  c #6D8551",
"T  c #6C8851",
"R  c #729250",
"E  c #79935F",
"W  c #78A051",
"Q  c #7B9960",
"!  c #819760",
"~  c #829D62",
"^  c #938571",
"/  c #A3937C",
"(  c #83A363",
")  c #89A264",
"_  c #8DA375",
"`  c #92A57A",
"'  c #97AC7A",
"]  c #99B178",
"[  c #A09688",
"{  c #A29A8F",
"}  c #AB9E8B",
"|  c #A49D93",
" . c #A99F92",
".. c #A3B48F",
"X. c #ACA293",
"o. c #A6A199",
"O. c #ABA59D",
"+. c #B1A391",
"@. c #B8A993",
"#. c #B0A69A",
"$. c #B2A99D",
"%. c #BBAD9A",
"&. c #ACBA9A",
"*. c #B0BD9D",
"=. c #ACA7A0",
"-. c #AEA9A3",
";. c #B2ACA4",
":. c #B4AEA9",
">. c #B6B2AC",
",. c #B9B4AD",
"<. c #B8BEAF",
"1. c #B7B6B1",
"2. c #BBB6B0",
"3. c #BEB9B4",
"4. c #BDBCB9",
"5. c #C0AF92",
"6. c #CAB99C",
"7. c #C5B7A3",
"8. c #C6B8A0",
"9. c #CBBCA7",
"0. c #C5BAAD",
"q. c #CCBFAB",
"w. c #C3BCB5",
"e. c #C5BEB9",
"r. c #BCC5B1",
"t. c #CBC2B4",
"y. c #C6C1BC",
"u. c #CAC3BE",
"i. c #D1C6B7",
"p. c #D4C9BB",
"a. c #C5C4C0",
"s. c #CCC6C1",
"d. c #CEC9C4",
"f. c #CCCAC9",
"g. c #D1CBC6",
"h. c #D3CECA",
"j. c #CFD1C3",
"k. c #DBD2C2",
"l. c #D4D1CE",
"z. c #D5D2CF",
"x. c #D7D2CE",
"c. c #D5D1CD",
"v. c #D7D4CF",
"b. c #D6D1CD",
"n. c #D8D3CF",
"m. c #D8D3CE",
"M. c #D5D2D0",
"N. c #D7D3D0",
"B. c #D7D3D1",
"V. c #D5D3D3",
"C. c #D7D5D1",
"Z. c #D6D5D2",
"A. c #D5D4D2",
"S. c #D7D4D1",
"D. c #D8D3D0",
"F. c #D9D5D1",
"G. c #D8D5D0",
"H. c #D8D5D2",
"J. c #D8D5D3",
"K. c #DAD6D2",
"L. c #D9D6D2",
"P. c #D9D5D1",
"I. c #DBD8D5",
"U. c #DCD9D6",
"Y. c #DCD9D5",
"T. c #D6D7D8",
"R. c #DEDCD9",
"E. c #E0D7CA",
"W. c #E1DACE",
"Q. c #E0DEDB",
"!. c #E0E0DD",
"~. c #E3E3E3",
"^. c #E8EAEB",
"/. c #EDEEF1",
/* pixels */
"l.u.s.l.h.h.l.h.l.h.h.h.h.h.l.h.h.l.h.l.l.h.l.h.h.l.l.l.l.l.N.N.Z.J.J.J.J.N.l.s.e.h.",
"h.>.-.N.Z.J.R.` 3 % o 3 0 & w v 9 > 3 2 8 4 0 0 3 3 0 % 3 9 > b y 9 3 _ I.J.J.;.=.h.",
"h.>.-.l.N.N.N.N.Z.Z.<.&.U i a M w & + , 4 N p 3 w + 3 0 3 & Q r.J.N.N.N.l.l.l.-.=.h.",
"l.|  .l.l.l.l.D.J.Z.Z.Z.Z.d...w 9 < q i w w q 6 a 3 + A ' r.Z.Z.N.N.l.l.h.d.h.$.[ l.",
"N.x / D.h.h.l.h.d.l.h.h.l.N.( * & + - 3 w > + 9 a r w N *.l.l.h.h.d.s.g.d.s.h.@.x l.",
"J.o.X.n.h.n.J.l.u.l.l.l.c.u.E + 9 & 0 0 0 w 4 0 0 2 ; w h.s.l.h.l.u.s.l.h.s.h.$.| N.",
"K.3.;.J.l.D.J.l.u.l.J.J.J.s.Y o 9 + w p , 0 0 w 4 + , 3 h.d.I.J.l.u.d.l.l.d.h.-.;.J.",
"I.3.:.J.l.J.J.l.s.v.J.J.J.s.I 2 1 % 3 9 C M , 4 0 w 4 a h.h.U.J.l.s.d.J.l.d.l.;.>.N.",
"U.3.:.J.l.J.J.l.u.n.J.J.J.s.K 0 3 + @ $ & q ; < w B i i h.h.U.J.n.s.g.J.l.g.d.3.f.T.",
"U.3.>.J.n.J.J.J.c.J.J.J.J.g.g 3   3 e 3 9 % 3 9 + 0 i N l.c.U.J.n.h.l.J.v.h.d.e.h.T.",
"R.3.>.J.n.n.J.J.J.Y.J.J.J.j.6 5 0 3 % & 3 3 9 w 3 3 3 0 ) U.J.J.J.J.n.l.l.h.h.h.Z.R.",
"R.3.>.J.l.n.J.l.d.J.n.l.l.h.& 3 r y 9 & 3 1 3 0 w 1 6 3 J.c.l.h.n.d.g.l.h.g.d.s.K.R.",
"R.3.>.J.n.J.Y.J.d.J.J.K.J.d.s 3 r r e 9 > 4 7 w w ; % @ h.h.J.J.J.d.h.J.l.l.h.y.K.Q.",
"R.3.>.U.n.J.U.J.d.J.J.K.J.d.j O & % 9 w 9 9 0 w v @ 0 w h.l.U.J.J.d.h.l.l.l.c.y.I.~.",
"Q.3.,.U.J.J.U.J.g.J.J.K.J.d.P q 9 9 0 w 3 < q 9 * # q q h.l.U.J.J.d.h.l.l.l.h.s.U.~.",
"Q.3.,.U.J.J.I.J.g.J.J.K.J.g.! + X O @ 9 * q q < > q % o h.l.U.J.J.d.c.l.l.l.l.s.U.^.",
"Q.3.,.Y.Y.U.Y.U.U.U.K.J.J.J.T X $ X O 9 e w w ; , w 0 d J.J.J.J.J.J.J.J.J.l.l.g.;./.",
"Q.3.,.U.J.J.J.J.n.U.J.n.n.n.P % % < + 1 3 > o 3 r w M H J.n.n.v.J.l.l.n.n.l.R.t.X.^.",
"Q.3.,.U.J.J.J.n.g.K.J.J.l.d.` 3 3 q 9 3 3 w 3 % q 9 9 U g.g.l.l.l.d.h.n.l.J.R.u.4.^.",
"Q.O.;.U.J.K.K.n.g.J.J.K.J.d._ e r 3 % 1 & 9 3 3 9 % 3 W g.h.J.J.n.d.h.J.J.J.U.y.4.~.",
"Q.^ } U.J.J.K.n.g.J.J.J.v.g._ 3 7 9 : % & % + 3 $ 9 % ( g.h.J.J.n.d.h.J.J.U.U.y.1.Q.",
"Q. .;.U.J.J.K.n.g.J.J.J.l.d.! 3 3 N 3 3 9 % & % 3 q r ~ g.h.J.D.n.d.h.J.J.J.U.4.1.!.",
"R.,.,.U.J.J.K.n.h.J.n.n.n.g.W.0 + q y 9 q y y % o w r Y.u.l.J.J.n.g.c.J.J.J.U.3.,.R.",
"R.,.,.K.J.J.J.J.J.J.n.n.n.i.6.e r w m n w p u e 9 3 9 8.7.J.l.l.J.J.J.J.l.l.K.3.>.R.",
"R.,.2.J.n.l.n.h.g.n.h.h.h.0.5.k.a ; 9 m N r y 9 9 3 ( 5.%.d.g.g.l.g.g.h.c.l.n.3.>.J.",
"U.,.,.J.n.n.D.h.s.n.b.b.g.y.p.p.w & 3 0 y w a q 9 9 E.t.w.s.h.h.c.s.g.b.c.h.h.e.,.Z.",
"J.>.,.K.n.n.J.l.d.n.c.n.h.w.9.W.w V y 9 9 e y q t y ] q.w.d.c.c.c.s.g.n.l.c.n.w.3.d.",
"J.>.,.K.b.n.n.h.s.l.c.l.h.w.p.; + & & y w w p B J B w p.w.d.c.h.h.s.g.n.c.h.n.3.:.l.",
"J.:.,.J.c.b.n.h.s.c.h.c.g.u.U.e t 3 1 + v 3 . g S 0 w U.s.s.h.h.h.s.g.c.h.h.l.w.;.h.",
"J.;.,.n.h.c.c.h.g.c.h.h.g.h.J.% % 9 N y N 6 5 0 N + 9 J.g.g.h.h.h.g.g.c.h.h.c.>.-.u.",
"n.;.,.n.c.c.c.h.h.h.g.g.d.d.J.9 2 3 r 3 p r 1 o + & 9 J.g.g.g.g.h.h.h.h.h.h.h.>.-.J.",
"l.;.,.b.g.g.g.s.u.g.d.d.u.e.n.e 5 1 e e g u 7 % $ & w n.y.y.d.s.g.u.u.g.g.g.h.:.-.l.",
"l.;.,.h.g.g.g.s.y.g.g.g.s.e.h.0 5 e y e y 0 a r t 9 3 l.e.u.d.d.g.y.u.g.g.g.h.:.=.l.",
"h.-.>.h.g.g.g.s.y.g.d.g.u.w.h.9 4 q 9 r 3 3 w m v 3 3 h.e.u.g.d.d.y.u.g.g.s.g.;.O.h.",
"h.=.>.h.d.g.g.u.e.s.s.s.y.w.g.G w w + 9 &   3 9 q v m h.e.e.s.s.s.e.u.g.g.s.g.;.=.h.",
"h.{ ;.g.s.g.g.u.e.s.u.u.y.w.g.F w 3 r y Z e 3 % O * q g.e.y.s.s.s.e.u.g.d.s.g.;.o.h.",
"d.k X.g.s.s.s.s.u.u.u.u.u.u.s.h M m a 7 r D e & O & & d.u.u.u.s.s.u.s.d.s.s.d.+.l d.",
"d.^ #.d.s.s.s.s.u.u.u.y.e.e.u.P 9 q w 2 3 r 3 3 & 9 m s.u.y.u.u.s.s.s.s.s.s.d.+.z s.",
"d.O.:.s.u.u.u.u.u.y.e.w.w.w.y.~ r a y 1 7 0 & e & 9 y y.e.e.e.e.u.u.s.s.s.s.s.;.| s.",
"s.O.:.s.u.y.e.y.y.u.u.s.g.l.*.q q r A d 4 e e a & * t J.h.s.u.y.e.e.e.y.u.u.s.;.o.s.",
"u.O.>.d.d.h.D.I.L + ; e $ + + * 0 y r f 7 e t & r 6 q = & & t n R U.N.h.d.s.s.;.| u.",
"d.y.s.l.l.D.J.l.D.l.l.D.l.l.D.l.l.l.l.l.l.l.N.l.l.J.Z.J.N.N.J.J.J.J.J.J.n.h.g.w.>.u."
};
