/* XPM */
static char *_353fbeca8334ef7b1ad4d82a5cc2db5l3QFvoCnUJV5KkVE[] = {
/* columns rows colors chars-per-pixel */
"42 42 211 2 ",
"   c #020203",
".  c #050609",
"X  c #07090A",
"o  c #0A0B0D",
"O  c #0D0E11",
"+  c #0E1114",
"@  c #111416",
"#  c #131519",
"$  c #16191C",
"%  c #191C1E",
"&  c #1A1E24",
"*  c #171B22",
"=  c #1D2224",
"-  c #1E232A",
";  c #212526",
":  c #21252C",
">  c #252B2D",
",  c #242A33",
"<  c #282E39",
"1  c #272A32",
"2  c #2B3334",
"3  c #2D343B",
"4  c #2C3637",
"5  c #343636",
"6  c #33363B",
"7  c #353A3C",
"8  c #3B3D3E",
"9  c #375E0C",
"0  c #3B5E14",
"q  c #335B12",
"w  c #3B630E",
"e  c #3D6B0F",
"r  c #36690E",
"t  c #3C6413",
"y  c #3D6B13",
"u  c #3D6119",
"i  c #3D7213",
"p  c #3E7910",
"a  c #3B720F",
"s  c #42730E",
"d  c #427B0F",
"f  c #426414",
"g  c #426C14",
"h  c #456B1A",
"j  c #496C1B",
"k  c #476618",
"l  c #447314",
"z  c #497415",
"x  c #457A13",
"c  c #4A7B14",
"v  c #467419",
"b  c #4B741B",
"n  c #4C7C1A",
"m  c #467A1C",
"M  c #527D1A",
"N  c #54771A",
"B  c #426D0E",
"V  c #4E7621",
"C  c #537627",
"Z  c #2F3541",
"A  c #353B45",
"S  c #3A3C41",
"D  c #353B4A",
"F  c #393E49",
"G  c #323745",
"H  c #3A3F50",
"J  c #5F384D",
"K  c #672E47",
"L  c #374243",
"P  c #3B4445",
"I  c #374048",
"U  c #3B434B",
"Y  c #3F494B",
"T  c #3B4353",
"R  c #3E4854",
"E  c #3F485A",
"W  c #444749",
"Q  c #434C4D",
"!  c #494C4D",
"~  c #414653",
"^  c #434C52",
"/  c #414658",
"(  c #434A5A",
")  c #4A4D54",
"_  c #465254",
"`  c #4A5354",
"'  c #46515C",
"]  c #4B545B",
"[  c #4F5C5E",
"{  c #4B5857",
"}  c #545659",
"|  c #535C5D",
" . c #5A5C5D",
".. c #525556",
"X. c #464E62",
"o. c #484D60",
"O. c #475062",
"+. c #4B5465",
"@. c #4E5A65",
"#. c #4C546A",
"$. c #4F586A",
"%. c #525D64",
"&. c #5C5D62",
"*. c #535C6D",
"=. c #565668",
"-. c #555E73",
";. c #546365",
":. c #5C6566",
">. c #55626C",
",. c #5B676A",
"<. c #5C6B6B",
"1. c #566173",
"2. c #596574",
"3. c #5C6A74",
"4. c #5D6B79",
"5. c #5C6778",
"6. c #5F7177",
"7. c #636668",
"8. c #636667",
"9. c #616D74",
"0. c #636E7B",
"q. c #6E6F70",
"w. c #637375",
"e. c #63737D",
"r. c #6A757B",
"t. c #65787D",
"y. c #6C7A7B",
"u. c #6C7171",
"i. c #737A7C",
"p. c #7C7E7E",
"a. c #747678",
"s. c #9C3753",
"d. c #944A61",
"f. c #9C6476",
"g. c #87616B",
"h. c #C1516E",
"j. c #48840F",
"k. c #458312",
"l. c #4A8214",
"z. c #4C821A",
"x. c #4D8817",
"c. c #528519",
"v. c #568525",
"b. c #598733",
"n. c #5A9920",
"m. c #62883B",
"M. c #63962F",
"N. c #688B4A",
"B. c #749053",
"V. c #657580",
"C. c #697582",
"Z. c #667A81",
"A. c #697D83",
"S. c #717E83",
"D. c #717D89",
"F. c #CE738A",
"G. c #6C8485",
"H. c #678082",
"J. c #738486",
"K. c #74848B",
"L. c #79868C",
"P. c #758A8B",
"I. c #7B8C8D",
"U. c #7D8082",
"Y. c #7D908F",
"T. c #7C8B91",
"R. c #7E9292",
"E. c #828384",
"W. c #898A8C",
"Q. c #878889",
"!. c #808E95",
"~. c #829595",
"^. c #8E9091",
"/. c #859698",
"(. c #8A9C9C",
"). c #879999",
"_. c #94979A",
"`. c #9A9B9D",
"'. c #949697",
"]. c #9CB589",
"[. c #ABBE9A",
"{. c #9D9EA1",
"}. c #9FA1A2",
"|. c #A3A4A5",
" X c #A6A6A8",
".X c #ABACAE",
"XX c #A7A9AA",
"oX c #AEAEB1",
"OX c #AFB0B2",
"+X c #B3B5B5",
"@X c #B7B9BA",
"#X c #B9BBBB",
"$X c #B5B7BC",
"%X c #DDA7B6",
"&X c #BEBFC0",
"*X c #E9BBC7",
"=X c #BEC0C1",
"-X c #C2C4C5",
";X c #C6C8CB",
":X c #CBCCCD",
">X c #C5C6C8",
",X c #CECFD0",
"<X c #CDD0D0",
"1X c #DADBDC",
"2X c #D4D6D7",
"3X c #DEDFE1",
"4X c #E3E4E6",
"5X c #EEEEEF",
"6X c #E4E6E8",
"7X c #FFFFFF",
"8X c #F5F5F6",
/* pixels */
"w f g t g b N k 0 e t t XX+ # +Xe s p.# *.+.@  Xz M '.X = -Xz q t x M c n v c.z z l ",
"y t g _.5 7 7 7 8 #Xw OXS / / S #Xs p.= t.3.$ }.g `.S / / P ,Xx.{.5 7 7 7 5 @Xs l c ",
"t 0 t p.= | %.[ | ! @X`.= t.e.= XX^.` <.~.Y.,.` .XE.> Z.3.= -X`.Q [ [ [ [ $  Xl.l l.",
"t t y p.2 P.~.~.J.; 5 | ,.~.~.:.} ~ %.I.(.(.P.' ^ } 9./.R.;.| ; 4 I.~.~.G.;  Xn c.c ",
"g g f p.2 P.(.R.t.-   % ` | | ` # & U _ | | _ I # - { | | Q o   4 G.~.(.G.;  Xy y 9 ",
"t t 0 p.2 P.R.Z.-.* o $ & & & & & & & & & & & & & & & & & & $ X 1 2.A.R.G.=  Xs y w ",
"f f y `.Q ;.;./ R = 3 +.1.1.1.1.1.1.1.1.1.1.1.1.1.1.1.1.1.1.O.1 , / ( ;.;.W #Xy c x ",
"t l y g `.# X . o 3 3.G.G.G.G.G.G.G.G.G.G.G.G.G.G.G.G.G.G.G.G.;.1 o . X ; @Xx s s e ",
"j l g g N.E..   1 >.H.P.~././.P.G.G.G.H.G.G.G.G.G.G.P./.~.~.P.y.@.-   @ |.M.l.z g e ",
"y w g g +X) 3 X T t.R.L.0.V.P.R.t.t.G.H.G.G.G.G.e.A.R.K.0.0.T.I.6.G o D } :Xx l.c.c ",
"z.x y .X} ;.<.O / Z.e.^ - : 4 y.I.t.t.G.G.G.G.e.Z.I.<.2 - : +.t.V.D # r.[  .;Xd l.s ",
"V t '.) ] ).i.O / *.+.D - *   2 J.C.4.G.G.G.G.2.K.w.;   & : R @.*.D $ I.~.^  ..Xy w ",
"v.l a.F >.(.i.O / X.#.#.E D # . | C.e.Z.G.G.t.e.A.U . * D ( $.O.+.D $ I./.+.P ^.z.z.",
"z l h '.Q r.w.O / 1.2.-.#.T D & 1 r.A.2.G.H.1.L.,.- - T T $.1.1.-.D # S.<.W +Xl c.z.",
"f N j f }.S U o / V.G.e.#.T D Z # | D.5.A.Z.5.L.P * Z D T *.Z.G.e.D O / S #Xs i l.z.",
"j j k e l _.o . / Z.G.e.#.Z + O X F D.L.1.2.!.C.1 X O # D *.Z.G.e.D   % +Xl l y x l ",
"V b h y @X7   . / Z.G.t./ ; } `.E.7 %.!.-.2./.Q W W.^.! - +.Z.G.e.D   . ! <Xl t l y ",
"j b g +X7 $ 7 o / Z.G.e.( ^ -X8X4X..2 0.K.K.3.= a.5X5XOXA +.Z.G.e.D o L + ! :Xy g p ",
"j V `.] 3 %.w.O / Z.G.A.>.9.8X7X%Xg.6 1 Q Q : S f.*X7X4X@.3.H.G.e.D # y._ 3 &.+Xg c ",
"V &XP F V.R.y.O / Z.G.H.2.*.;X6Xh.d.Q + + + # &.s.F.6X$XO.e.G.G.e.D $ I.I.0.<  .:Xs ",
"B.8 H 4.I.(.y.O / Z.G.t.>.@.0.{.d.J ' ( ( ( ( ' K f._.2.@.1.A.G.e.D $ I.(.K.2.Z | i ",
"m.` U 2.P.(.y.O / Z.G.G.G.S.9.%.=.0.H.A.A.A.A.A.9.=.%.w.S.G.G.G.e.D $ I.(.K.*.A 7.i ",
"n 1XW Z 4.I.y.O / Z.G.G.;.% % ;.A.G.G.G.G.G.G.G.H.A.` # ; w.G.G.e.D $ P.K.2., 8.[.z.",
"M M &X7.= Q <.o / Z.G.;.7 _ F 2 ^ w.G.G.G.G.G.G.3.U 3 U _ 6 6.G.e.D # w.7 - i.:Xl g ",
"z N M :X} + > X / Z.V.U ; t.O.^ ( I 4 I @.@.7 4 T ( ^ @.r.$ ' Z.e.D X > o q.1Xx l 0 ",
"m j g c :X}   . / Z.1.3 # U O.t.>.R L I R ( P L R 3.e.( I O F 3.e.D   X q.3Xv y v f ",
"n c.z l N.W.# . / Z.' &   O U [ I ^ ;.{ Z R %.;.U U ] G .   : ;.V.D   ; |.n x z g g ",
"M c.l N.W.7 ( o / Z.4     . # % # $ = % @ $ = = $ $ % #       Y V.D + ] 6 |.b.v j z ",
"n z N.U.P J.r.O / Z.2   o & ( 3.( ] ,.[ G ( >.,.( +.3./ # o   Q V.D $ L.y.7 {.b.g g ",
"l g  .6 3.(.i.O / T.6 * @.>./ $.( , # @ O + # # < +.#.( 3.' + ` K.D $ I.).*.2 E.z n ",
"q y #X:.Q ~.y.O / T.7 > e.1.T 1 T ;.,.,.,.,.,.,.%.A 1 R 3.9.$ ..K.D $ I.I.S a.:Xc k.",
"0 t l >X7.^ %.o / T.<.P 4 G w.;.3.K.K.C.3.9.C.I.G.,.:.3.3 6 U y.K.D # 2.Y i.1Xz.d d ",
"b f y g :X7., X T 3.P.y.Q ` A.T.P.G.t.3.>.>.4.A.G.P.T.r.^ Q J.J.2.Z X 3 a.1Xx x x.n ",
"n z l y m.E.    , D 9.P.I.L.5.A.G.G.G.G.G.G.G.G.G.G.t.5.T.I.L.>.D -   o Q.].i a l.x ",
"v f h C ^.= # O # < T R O.2.V.A.A.A.A.A.A.A.A.A.A.A.A.V.-.X.R D , @ + # = |.m s l l.",
"j k b W.7 t.e.$.+.& , T X.+.@.@.@.@.@.@.+.+.@.@.@.@.@.+.+.X.T & 1 #.*.r.w.2 oXj.v n ",
"j f b p.2 P.~.A.2.& . + $ $ $ $ @ # $ $ $ $ $ # @ # $ $ $ $ O   1 5.J.~.G.-  Xk.l.n ",
"t t b p.2 P.(./.A.;   ; <.y.y.,.& 1 +.,.y.y.,.' & 2 9.y.r.;.#   4 K./.(.G.;  Xi n n ",
"y y g p.2 P.R.R.J.; ..u.` I.I.` u.] ] I.(.(.P.R &.7.| R.P.Q i.8 4 P.R.I.G.;  Xi v.h ",
"y n l p.# P P P Y 7.:X{.& 4.3.% .XoX .[ Y.P.` ,.-XE.- e.2.% >X+X .P P P L +  Xc c g ",
"g l q .X . . . .8.:XB =X} A D } ;Xn p.$ e.,.@  Xb OX) G F &.2Xl.+X . . . . .>Xl.l r ",
"w t t r y l z m c g z z @X$ % -Xv.j E.= #.o.& .Xv u |.@ > 2Xx v x p a y t c j.n.x.k."
};
