/* XPM */
static char *newwall[] = {
/* columns rows colors chars-per-pixel */
"42 42 134 2 ",
"   c #944B32",
".  c #944B33",
"X  c #954C33",
"o  c #905034",
"O  c #915034",
"+  c #955234",
"@  c #955335",
"#  c #9A5535",
"$  c #9A5536",
"%  c #93553B",
"&  c #94573D",
"*  c #9D5738",
"=  c #9C573D",
"-  c #95583E",
";  c #9E5838",
":  c #A35235",
">  c #A05539",
",  c #AA5538",
"<  c #AB5538",
"1  c #A35938",
"2  c #A65B39",
"3  c #A75C3A",
"4  c #A75C3C",
"5  c #AB5B38",
"6  c #A85B3A",
"7  c #AB5C38",
"8  c #A95D3A",
"9  c #AC5C38",
"0  c #AD5F3B",
"q  c #AC5A3C",
"w  c #AD5A3C",
"e  c #B1593A",
"r  c #B45D3F",
"t  c #AE603A",
"y  c #B26038",
"u  c #B1613E",
"i  c #B4633E",
"p  c #B4643E",
"a  c #B9643C",
"s  c #C0603F",
"d  c #C1603F",
"f  c #C2673D",
"g  c #995B42",
"h  c #9D5C41",
"j  c #9B5E45",
"k  c #A15E44",
"l  c #9D6046",
"z  c #A66145",
"x  c #A56247",
"c  c #AA6144",
"v  c #A86549",
"b  c #AB6548",
"n  c #A86649",
"m  c #AC684B",
"M  c #B36246",
"N  c #B56445",
"B  c #B76647",
"V  c #BA6641",
"C  c #BF6640",
"Z  c #BD6745",
"A  c #BE6942",
"S  c #BF6942",
"D  c #B96748",
"F  c #B4694B",
"G  c #B66D4B",
"H  c #B36C4E",
"J  c #B86C4E",
"K  c #B66C50",
"L  c #BC7358",
"P  c #C16140",
"I  c #C26140",
"U  c #C16744",
"Y  c #C26646",
"T  c #C36746",
"R  c #C46646",
"E  c #C46746",
"W  c #C06943",
"Q  c #C36942",
"!  c #C16A43",
"~  c #C26A43",
"^  c #CA6B40",
"/  c #CE6D41",
"(  c #CF6F42",
")  c #C06D4C",
"_  c #CA714A",
"`  c #D37043",
"'  c #D17146",
"]  c #DA7445",
"[  c #DA7446",
"{  c #DF7646",
"}  c #DC784A",
"|  c #C07150",
" . c #C37251",
".. c #C77255",
"X. c #C77355",
"o. c #CA7654",
"O. c #CB7756",
"+. c #CA7855",
"@. c #C1785D",
"#. c #CD7D5D",
"$. c #D77C54",
"%. c #D27E59",
"&. c #D57C59",
"*. c #D57D59",
"=. c #D97F5A",
"-. c #E07747",
";. c #E27847",
":. c #E07748",
">. c #E17848",
",. c #E27848",
"<. c #E37948",
"1. c #E27D4F",
"2. c #E37D4F",
"3. c #E47E4F",
"4. c #D6815E",
"5. c #DA805B",
"6. c #DB815B",
"7. c #E5875D",
"8. c #E5875E",
"9. c #E5885E",
"0. c #DB8461",
"q. c #D88663",
"w. c #D98763",
"e. c #DC8561",
"r. c #DA8965",
"t. c #DC8965",
"y. c #D18A6D",
"u. c #D98968",
"i. c #DC8D6C",
"p. c #DD8D6C",
"a. c #DD8D6D",
"s. c #D28C70",
"d. c #D28D71",
"f. c #D48D70",
/* pixels */
"i V W W W ~ ~ W ! ! ! ! ! ! ! ! ! ! ! ! ~ ! ! ! ! ! ! ! ! ! ! ! ~ ~ ~ ~ S ! A u 8 y ",
"i V W W ~ ~ ~ W ! ! ! ! ! ! ! ! ! ! ! ! ~ ~ ! ! ! ! ! ! ! ! ! ! ~ ~ ~ ~ ! ! A u 0 y ",
"i V W W S ~ ~ ~ ! ! ! ! ! ! ! ! ! ! ! ! ! ~ ! S ! ! ! ! ! ! ! ! ~ W W W ! ! ! t 8 y ",
"i V W W ~ ~ ~ ~ ! ! ! ! ! ! ! ! ! ! ! ! ! ! ! ! ! ! ! ! ! ! ! ! W ~ W W ~ ! S M t y ",
"p V A A ~ ~ ~ S S ! ! ! W W W W ! ! ! ! ! Y ! S Y ! ! ! ! ! ! ! A ! ! ! W A A u 8 y ",
"t 3 3 3 3 3 3 3 3 3 8 6 6 3 8 8 6 6 3 3 6 3 3 3 6 3 3 3 6 8 3 3 3 3 3 6 8 3 3 1 3 y ",
"; @ o o o o X o o o o o . o o o . o o o . o o o o o o o o o . . o o o o   X O O ; t ",
"h g g & & & & g & & & g & & - - & g % % % g l j j j j j j j j j j j j j j l j l b G ",
"@.@.@.@.@.@.@.@.@.@.@.@.@.@.@.@.@.@.L J K #.y.d.f.d.y.d.d.s.s.s.y.y.f.d.d.d.y.d.y.d.",
"X.X.X.X.X.X.X.X.X.X.X.X.X.X.X.X.X.X.D M J #.u.a.a.a.a.a.a.a.a.a.a.a.a.a.a.a.a.p.a.a.",
"R R Y Y R R R R R R R R R R R R R Y M w D O.4.0.e.e.e.e.e.e.e.e.e.e.e.w.e.e.e.e.e.e.",
"d d d d d d d d d d d d d d d d s s e 6 D O.&.=.=.6.=.6.6.=.6.=.5.=.=.5.5.6.=.6.6.6.",
"d d P P P P P P P P P P P P P P s s e w D O.&.=.6.=.=.0.=.6.=.6.5.5.5.5.5.5.5.5.6.5.",
"P d P P P P P P P P P P P P P P P s e w B O.&.=.=.=.=.=.6.=.6.=.5.5.5.5.5.5.5.5.5.6.",
"P P P P P P P P P P P P P P P P d M e q D O.=.=.6.=.=.6.=.6.=.6.5.5.5.5.5.5.5.5.5.5.",
"P P P P P P P P P P P P P P P P d C e q D O.&.=.=.0.6.=.6.=.6.=.5.5.5.5.5.5.5.5.5.6.",
"P P P P d d I I P P P P I s s I d d e w B O.&.5.5.5.5.5.5.5.5.5.5.5.5.5.5.5.5.5.5.5.",
"P P P I s I I I P P P P I I s s d d e w B O.&.5.5.5.5.5.5.5.5.5.5.5.5.5.5.5.5.5.5.5.",
"P P I s I s I I P P C P I I s I I d e w D O.&.6.5.5.5.5.5.5.5.5.5.5.=.6.5.5.5.5.5.5.",
"P P s I s I I I P P I I I I I s I r e w B O.&.=.5.5.5.5.5.5.5.5.5.5.5.=.5.5.5.5.5.5.",
"P P P P I d I d P P P P I I s I I d e w D O.&.6.5.6.6.6.5.5.5.5.6.6.=.6.5.5.6.6.5.5.",
"I I I I I I I I P P P P I s I I P d e w B O.=.6.6.6.6.6.5.5.6.5.5.=.6.6.6.6.6.5.5.5.",
"< < k e < < < < < < k < < < < < w < : < B  . .J  .J  .|  .G  . . . . .J  . .J  . . .",
"        X X X X X     X . . . .       > M F b z c n x z b z z z z z n n z z z z z z ",
"> : = = = k = = k = k = g = k = h h 3 k J K b n n n n n n n n n b b n n n n n n z k ",
"&.q.w.w.w.0.q.0.q.=.0.q.q.0.q.q.0.q.w.w.r.t.t.t.r.r.r.r.r.r.r.r.t.t.q.t.r.r.w.w.o.) ",
"&.=.8.8.8.8.8.8.8.8.8.8.8.8.8.8.8.8.8.8.8.8.8.8.9.9.9.9.9.9.9.9.8.8.8.8.9.9.9.$._ ~ ",
"` } 2.3.2.2.2.2.2.2.2.2.2.2.2.2.1.1.3.3.3.3.3.3.3.3.3.3.3.3.3.3.2.2.2.3.1.1.1.' W W ",
"` ] -.-.:.<.<.:.;.;.;.;.;.;.;.;.-.-.-.<.;.;.;.;.;.;.;.;.;.;.;.;.<.-.<.;.;.<.<.f W W ",
"` ] -.<.<.:.:.<.,.,.,.,.<.:.<.<.<.<.-.<.:.<.<.>.<.>.<.>.;.;.>.>.>.;.;.;.;.<.<.` R W ",
"` ] :.<.<.:.<.<.,.,.<.<.<.:.<.:.<.:.<.<.:.<.<.<.<.:.<.>.>.>.>.>.-.<.<.<.;.;.<./ ~ W ",
"` ] :.:.<.<.<.:.,.<.:.:.<.<.<.:.<.<.<.:.<.<.:.:.<.<.<.>.<.<.>.<.<.<.<.<.<.<.<.f R R ",
"` ] :.<.<.:.<.<.<.<.:.<.<.<.:.<.>.<.:.:.<.<.:.<.<.<.:.<.<.:.<.<.<.<.:.<.:.<.:.( Y Y ",
"` ] :.<.<.:.<.:.<.:.<.<.:.<.,.,.>.<.<.<.<.:.<.<.:.<.,.,.<.:.<.:.:.<.,.,.<.<.:.( R U ",
"` ] :.:.<.<.:.<.<.<.:.:.,.,.,.,.<.:.>.>.<.<.:.:.,.,.,.,.<.<.:.<.,.,.,.,.<.>.-.` f W ",
"` ] :.<.:.<.<.<.:.<.<.<.,.,.,.,.<.>.<.<.:.<.<.<.,.,.,.,.:.<.<.<.,.,.,.,.<.>.] / f W ",
"` [ :.:.<.<.<.:.<.:.:.<.,.,.,.,.<.<.<.<.;.;.<.<.,.,.<.<.<.;.<.:.,.,.<.<.<.;.-./ W Y ",
"` [ :.<.<.:.<.:.<.<.<.<.,.,.,.,.<.<.<.>.>.;.<.<.,.,.<.<.<.;.<.:.,.,.<.<.<.;.>./ ~ R ",
"` [ :.:.<.:.<.<.<.<.:.<.<.<.<.<.<.<.<.<.>.<.;.<.<.;.<.<.<.<.<.:.<.;.<.<.<.<.-./ R W ",
"/ ^ / ^ / ^ / ^ / ^ / / / d / ^ / f ( / f ( ( f ^ / / d ^ / ^ / ^ / / d ^ / ^ d f W ",
"a 0 5 7 7 7 7 7 < w 5 5 9 9 7 7 7 7 7 7 7 7 7 7 7 7 7 7 7 7 7 9 9 5 5 5 5 w 6 6 i C ",
"1 # + + + + + + + + + + + + + + + + + + + + + + + + + + + + + + + + + + + + + $ 3 B "
};
